<?xml version="1.0" encoding="utf-8"?>
<svg width="300px" height="218px" viewBox="0 0 300 218" version="1.1" xmlns:xlink="http://www.w3.org/1999/xlink" xmlns="http://www.w3.org/2000/svg">
  <desc>Created with Lunacy</desc>
  <defs>
    <linearGradient x1="0.49998495" y1="0.999958336" x2="0.49998495" y2="-4.095636E-05" id="gradient_1">
      <stop offset="0" stop-color="#808080" stop-opacity="0.2509804" />
      <stop offset="0.54" stop-color="#808080" stop-opacity="0.121568628" />
      <stop offset="1" stop-color="#808080" stop-opacity="0.101960786" />
    </linearGradient>
    <linearGradient x1="0.5001096" y1="0.999969542" x2="0.5001096" y2="-3.590173E-05" id="gradient_2">
      <stop offset="0" stop-color="#808080" stop-opacity="0.2509804" />
      <stop offset="0.54" stop-color="#808080" stop-opacity="0.121568628" />
      <stop offset="1" stop-color="#808080" stop-opacity="0.101960786" />
    </linearGradient>
  </defs>
  <g id="undraw_design_community_rcft-(1)">
    <path d="M73.6385 8.20639C81.7327 1.0135 94.4335 -0.461045 105.993 0.11162C142.306 1.91261 175.085 19.4218 203.436 39.2271C213.702 46.3951 223.808 54.122 230.47 63.9956C244.043 84.0914 240.01 111.936 221.151 128.491C214.733 134.126 206.954 138.45 198.968 142.271C184.769 149.079 169.447 154.543 153.334 156.103C141.841 157.21 130.206 156.311 118.783 154.764C86.8629 150.435 55.5305 140.874 29.2701 124.532C17.7521 117.356 6.89337 108.439 2.14545 96.8311C-2.60248 85.2229 0.436306 70.519 12.1981 63.6498C17.0623 60.8086 22.8795 59.5249 28.572 58.3215C36.9543 56.5482 45.4695 54.7997 53.0346 51.195C60.8463 47.4713 70.0956 40.2673 68.5471 32.0259C66.8906 23.1676 65.5582 15.3993 73.6385 8.20639Z" transform="translate(22.06231 0.2756897)" id="Shape" fill="#4E53F7" fill-opacity="0.1" stroke="none" />
    <path d="M30.3213 3.88416C47.0673 3.88416 60.6427 3.01466 60.6427 1.94208C60.6427 0.869499 47.0673 0 30.3213 0C13.5753 0 0 0.869499 0 1.94208C0 3.01466 13.5753 3.88416 30.3213 3.88416Z" transform="translate(205.2576 194.1998)" id="Oval" fill="#4E53F7" fill-opacity="0.1" stroke="none" />
    <path d="M30.3213 3.88416C47.0673 3.88416 60.6427 3.01466 60.6427 1.94208C60.6427 0.869499 47.0673 0 30.3213 0C13.5753 0 0 0.869499 0 1.94208C0 3.01466 13.5753 3.88416 30.3213 3.88416Z" transform="translate(126.446 181.2028)" id="Oval" fill="#4E53F7" fill-opacity="0.1" stroke="none" />
    <path d="M30.3213 3.88416C47.0673 3.88416 60.6427 3.01466 60.6427 1.94208C60.6427 0.869499 47.0673 0 30.3213 0C13.5753 0 0 0.869499 0 1.94208C0 3.01466 13.5753 3.88416 30.3213 3.88416Z" transform="translate(15.12742 212.0105)" id="Oval" fill="#4E53F7" fill-opacity="0.1" stroke="none" />
    <path d="M12.4765 1.59904C19.367 1.59904 24.9529 1.24108 24.9529 0.799518C24.9529 0.357956 19.367 0 12.4765 0C5.5859 0 0 0.357956 0 0.799518C0 1.24108 5.5859 1.59904 12.4765 1.59904Z" transform="translate(90.59003 216.2045)" id="Oval" fill="#4E53F7" fill-opacity="0.1" stroke="none" />
    <path d="M9.72299 1.24492C15.0929 1.24492 19.446 0.966238 19.446 0.622462C19.446 0.278686 15.0929 0 9.72299 0C4.35313 0 0 0.278686 0 0.622462C0 0.966238 4.35313 1.24492 9.72299 1.24492Z" transform="translate(280.3047 195.7961)" id="Oval" fill="#4E53F7" fill-opacity="0.1" stroke="none" />
    <path d="M8.24377 1.0568C12.7967 1.0568 16.4875 0.820229 16.4875 0.528401C16.4875 0.236573 12.7967 0 8.24377 0C3.69086 0 0 0.236573 0 0.528401C0 0.820229 3.69086 1.0568 8.24377 1.0568Z" transform="translate(192.5457 182.918)" id="Oval" fill="#4E53F7" fill-opacity="0.1" stroke="none" />
    <path d="M3.58053 0C3.58053 0 4.88247 1.7014 2.9822 4.26871C1.08192 6.83602 -0.491487 9.00218 0.142862 10.6012C0.142862 10.6012 3.01544 5.83454 5.35062 5.76815C7.6858 5.70175 6.15394 2.86886 3.58053 0Z" transform="translate(287.8461 181.4795)" id="Shape" fill="#4E53F7" stroke="none" />
    <path d="M3.49862 0C3.61558 0.164117 3.70883 0.343858 3.77562 0.533934C6.0554 3.20914 7.2687 5.70452 5.07756 5.76815C3.03601 5.82624 0.587258 9.47249 0 10.3937C0.0189056 10.4642 0.0420312 10.5335 0.0692521 10.6012C0.0692521 10.6012 2.94183 5.83454 5.27701 5.76815C7.61219 5.70175 6.07202 2.86886 3.49862 0Z" transform="translate(287.928 181.4795)" id="Shape" fill="#000000" fill-opacity="0.1" stroke="none" />
    <path d="M0.4 0.382961C0.4 0.983291 0.311111 1.46743 0.2 1.46743C0.0888889 1.46743 0 0.983291 0 0.382961C0 -0.217369 0.111111 0.0675805 0.222222 0.0675805C0.333333 0.0675805 0.4 -0.214602 0.4 0.382961Z" transform="translate(293.5512 183.2627)" id="Shape" fill="#FFD037" stroke="none" />
    <path d="M1.02792 0.412471C0.501607 0.689121 0.0445435 0.871709 0.00299229 0.79978C-0.038559 0.727851 0.357563 0.434603 0.883879 0.146887C1.41019 -0.140829 1.20244 0.0694251 1.24122 0.146887C1.28 0.224349 1.55424 0.124755 1.02792 0.412471Z" transform="translate(293.6535 183.9497)" id="Shape" fill="#FFD037" stroke="none" />
    <path d="M2.92278 0C2.92278 0 1.62084 1.7014 3.52389 4.26871C5.42694 6.83602 6.9948 9.00218 6.36045 10.6012C6.36045 10.6012 3.49065 5.83454 1.1527 5.76815C-1.18525 5.70175 0.352144 2.86886 2.92278 0Z" transform="translate(281.6312 181.4795)" id="Shape" fill="#4E53F7" stroke="none" />
    <path d="M2.93082 0C2.81324 0.163743 2.71994 0.343574 2.65381 0.533934C0.374028 3.20914 -0.842038 5.70452 1.3491 5.76815C3.39065 5.82624 5.84217 9.47249 6.42666 10.3937C6.40775 10.4642 6.38463 10.5335 6.35741 10.6012C6.35741 10.6012 3.4876 5.83454 1.14965 5.76815C-1.1883 5.70175 0.360178 2.86886 2.93082 0Z" transform="translate(281.6232 181.4795)" id="Shape" fill="#000000" fill-opacity="0.1" stroke="none" />
    <path d="M0 0.382961C0 0.983291 0.0880734 1.46743 0.198165 1.46743C0.308257 1.46743 0.4 0.983291 0.4 0.382961C0.4 -0.217369 0.286239 0.0675805 0.176147 0.0675805C0.066055 0.0675805 0 -0.214602 0 0.382961Z" transform="translate(282.133 183.2627)" id="Shape" fill="#FFD037" stroke="none" />
    <path d="M0.319157 0.412471C0.845473 0.689121 1.30531 0.871709 1.34409 0.79978C1.38287 0.727851 0.989517 0.434603 0.463201 0.146887C-0.0631147 -0.140829 0.144642 0.0694251 0.10586 0.146887C0.0670792 0.224349 -0.207159 0.124755 0.319157 0.412471Z" transform="translate(280.9828 183.9497)" id="Shape" fill="#FFD037" stroke="none" />
    <path d="M0 1.96378C0 1.96378 3.63989 1.85312 4.73684 1.07297C5.8338 0.292816 10.3352 -0.639494 10.6094 0.610963C10.8837 1.86142 16.0776 6.83282 11.9695 6.86601C7.8615 6.89921 2.42105 6.22695 1.3241 5.56299C0.227147 4.89903 0 1.96378 0 1.96378Z" transform="translate(282.5623 189.8956)" id="Shape" fill="#A8A8A8" stroke="none" />
    <path d="M12.0416 4.47343C7.93352 4.50662 2.49307 3.83437 1.39889 3.16764C0.567867 2.66137 0.232687 0.841015 0.121884 0L0 0C0 0 0.229917 2.93249 1.3241 3.59645C2.41828 4.26041 7.85873 4.93266 11.9695 4.89947C13.1551 4.89947 13.5651 4.47066 13.5429 3.84543C13.3767 4.22997 12.9252 4.46513 12.0416 4.47343Z" transform="translate(282.5485 191.8538)" id="Shape" fill="#000000" fill-opacity="0.2" stroke="none" />
    <path d="M3.06414 0C3.06414 0 4.17217 1.45241 2.54891 3.64901C0.925636 5.84561 -0.420624 7.69916 0.122312 9.06858C0.122312 9.06858 2.57661 4.99076 4.57661 4.91883C6.57661 4.8469 5.25805 2.45112 3.06414 0Z" transform="translate(199.1879 170.6735)" id="Shape" fill="#4E53F7" stroke="none" />
    <path d="M3.00831 0C3.10499 0.14082 3.18145 0.29447 3.23546 0.456472C5.17452 2.74437 6.22438 4.88287 4.34349 4.93266C2.59834 4.98246 0.501385 8.10307 0 8.89152C0.0165803 8.95176 0.0369343 9.01089 0.0609418 9.06858C0.0609418 9.06858 2.51524 4.99076 4.51524 4.91883C6.51524 4.8469 5.20222 2.45112 3.00831 0Z" transform="translate(199.2438 170.6735)" id="Shape" fill="#000000" fill-opacity="0.1" stroke="none" />
    <path d="M0.372 0.330575C0.372 0.842377 0.288 1.25735 0.188 1.25735C0.088 1.25735 0 0.842377 0 0.330575C0 -0.181227 0.104 0.053925 0.208 0.053925C0.312 0.053925 0.372 -0.181227 0.372 0.330575Z" transform="translate(204.0637 172.1965)" id="Shape" fill="#FFD037" stroke="none" />
    <path d="M0.88235 0.348605C0.430827 0.592057 0.0513252 0.741447 0.00423383 0.677818C-0.0428576 0.614188 0.308943 0.36797 0.757696 0.124518C1.20645 -0.118933 1.0347 0.0581225 1.06518 0.124518C1.09565 0.190914 1.3311 0.102386 0.88235 0.348605Z" transform="translate(204.1509 172.7899)" id="Shape" fill="#FFD037" stroke="none" />
    <path d="M2.50112 0C2.50112 0 1.39309 1.45241 3.01359 3.64901C4.63409 5.84561 5.98589 7.69916 5.44295 9.06858C5.44295 9.06858 2.98589 4.99076 0.985888 4.91883C-1.01411 4.8469 0.301677 2.45112 2.50112 0Z" transform="translate(193.8673 170.6735)" id="Shape" fill="#4E53F7" stroke="none" />
    <path d="M2.49711 0C2.39877 0.140254 2.32133 0.294013 2.26719 0.456472C0.328135 2.74437 -0.721726 4.88287 1.15916 4.93266C2.90708 4.98246 5.00127 8.10307 5.50265 8.89152C5.48603 8.94962 5.46664 9.01048 5.44448 9.06858C5.44448 9.06858 2.98741 4.99076 0.987415 4.91883C-1.01258 4.8469 0.297664 2.45112 2.49711 0Z" transform="translate(193.8713 170.6735)" id="Shape" fill="#000000" fill-opacity="0.1" stroke="none" />
    <path d="M0 0.330575C0 0.842377 0.084 1.25735 0.188 1.25735C0.292 1.25735 0.372 0.842377 0.372 0.330575C0.372 -0.181227 0.268 0.053925 0.164 0.053925C0.06 0.053925 0 -0.181227 0 0.330575Z" transform="translate(194.2964 172.1965)" id="Shape" fill="#FFD037" stroke="none" />
    <path d="M0.274015 0.348605C0.722768 0.592057 1.10504 0.741447 1.14936 0.677818C1.19368 0.614188 0.847422 0.36797 0.395898 0.124518C-0.055625 -0.118933 0.11889 0.0581225 0.0884193 0.124518C0.0579484 0.190914 -0.177509 0.102386 0.274015 0.348605Z" transform="translate(193.3132 172.7899)" id="Shape" fill="#FFD037" stroke="none" />
    <path d="M0 1.68195C0 1.68195 3.11357 1.58513 4.05263 0.918401C4.99169 0.251675 8.84488 -0.547843 9.07756 0.522792C9.31025 1.59343 13.7562 5.8483 10.241 5.87596C6.72576 5.90363 2.07202 5.32267 1.13573 4.76937C0.199446 4.21607 0 1.68195 0 1.68195Z" transform="translate(194.651 177.872)" id="Shape" fill="#A8A8A8" stroke="none" />
    <path d="M10.3047 3.81777C6.7867 3.8482 2.13296 3.26447 1.19668 2.71117C0.484765 2.27683 0.199446 0.719289 0.105263 0L0 0C0 0 0.196676 2.50645 1.13573 3.07634C2.07479 3.64624 6.72576 4.22167 10.241 4.18294C11.2548 4.18294 11.6066 3.815 11.5873 3.28107C11.4571 3.62411 11.0582 3.81223 10.3047 3.81777Z" transform="translate(194.651 179.5567)" id="Shape" fill="#000000" fill-opacity="0.2" stroke="none" />
    <g id="Group" transform="translate(18.55956 170.6929)" opacity="0.8">
      <path d="M20.723 6.67517e-06C32.1616 0.00459004 41.4314 9.26777 41.4294 20.6916C41.4273 32.1154 32.1542 41.3752 20.7156 41.3757C9.27701 41.3762 0.00306483 32.1172 4.64343e-06 20.6934C-0.00367402 15.2036 2.17854 9.93757 6.06573 6.05593C9.95293 2.17429 15.226 -0.00440111 20.723 6.67517e-06L20.723 6.67517e-06Z" transform="translate(1.653735 1.596262)" id="Shape" fill="#E74D89" stroke="none" />
      <path d="M22.1662 44.3248C9.91471 44.3111 -0.00764026 34.3842 4.41441e-06 22.1486C0.00764908 9.91295 9.9424 -0.00152249 22.1939 0C34.4454 0.00152249 44.3777 9.91846 44.3823 22.1541C44.3716 34.4007 34.4287 44.3233 22.1662 44.3248L22.1662 44.3248ZM40.8947 25.1889C37.0594 24.0719 33.0289 23.7889 29.0748 24.359C30.6944 28.744 31.9298 33.2611 32.7673 37.8595C37.122 34.9477 40.0666 30.357 40.8947 25.1889L40.8947 25.1889ZM29.5789 39.6079C28.6872 34.7079 27.3331 29.9032 25.5346 25.2581C25.4964 25.2765 25.4551 25.2877 25.4127 25.2913C14.7036 29.0178 10.867 36.4209 10.5208 37.1125C13.8454 39.6996 17.9405 41.1027 22.1551 41.0991C24.7025 41.1168 27.226 40.6092 29.5679 39.6079L29.5789 39.6079ZM8.07479 34.8413C8.50692 34.1137 13.7147 25.5182 23.5042 22.345C23.7452 22.2592 24.0055 22.1901 24.2493 22.1209C23.7812 21.0447 23.2604 19.9713 22.7036 18.9145C13.2299 21.7391 4.03047 21.6174 3.19667 21.6008C3.19667 21.7917 3.18005 21.9826 3.18005 22.1707C3.18558 26.8536 4.92957 31.3681 8.07479 34.8413L8.07479 34.8413ZM3.59557 18.3059C9.51532 18.2799 15.408 17.5056 21.133 16.0014C18.9869 12.2323 16.6401 8.5808 14.1025 5.06268C8.71883 7.59274 4.83092 12.4932 3.59557 18.3059L3.59557 18.3059ZM17.723 3.78179C20.3254 7.31071 22.6915 11.0074 24.8061 14.8478C31.5568 12.3192 34.4017 8.5042 34.7507 8.02006C31.2828 4.94415 26.8043 3.2478 22.1662 3.25339C20.6694 3.26422 19.1788 3.44521 17.723 3.79285L17.723 3.78179ZM36.8504 10.2111C36.4515 10.7506 33.2742 14.8229 26.2632 17.6807C26.6953 18.5826 27.1302 19.501 27.5291 20.4195C27.6676 20.7487 27.8061 21.0779 27.9474 21.3905C34.2632 20.591 40.5291 21.8747 41.1551 21.9964C41.1084 17.6917 39.5895 13.5324 36.8504 10.2084L36.8504 10.2111Z" transform="translate(0.2105278 0.1189736)" id="Shape" fill="#B2215A" stroke="none" />
    </g>
    <path d="M55.346 63.012C54.8447 62.384 54.274 58.0655 54.274 58.0655L52.0579 47.0604L50.9111 40.7196C50.9111 40.7196 50.6341 32.7106 45.6147 28.7379L45.2242 28.4308C45.2242 28.3589 45.2242 28.2897 45.2242 28.2178L45.2242 28.2178L45.2242 28.2178C45.1785 27.4443 45.0092 26.6831 44.7228 25.9631C44.6015 25.7299 44.5397 25.4705 44.5427 25.2078C44.5557 25.1043 44.5896 25.0046 44.6424 24.9146L44.6424 24.9146C44.8776 24.5926 45.1875 24.3325 45.5455 24.1565C46.4568 23.6032 47.2325 22.7318 47.443 21.6999C47.4417 21.6769 47.4417 21.6538 47.443 21.6307C47.443 21.5865 47.443 21.5394 47.4624 21.4924C47.4818 21.4454 47.4624 21.4426 47.4624 21.4149C47.4651 21.367 47.4651 21.319 47.4624 21.2711L47.4624 21.2102C47.4624 21.1549 47.4624 21.0968 47.4624 21.0387C47.461 21.0268 47.461 21.0147 47.4624 21.0027C47.4624 20.9391 47.4485 20.8727 47.4375 20.8091L47.4375 20.7953L47.4375 20.7953C47.3357 20.0343 46.8506 19.3785 46.1521 19.0579C46.4051 18.9976 46.6153 18.8226 46.72 18.5848L46.72 18.5848C46.7541 18.5168 46.7811 18.4454 46.8003 18.3718L46.8003 18.3718C46.8193 18.3031 46.8313 18.2326 46.8363 18.1615C46.8363 18.1615 46.8363 18.1394 46.8363 18.1283C46.8405 18.0676 46.8405 18.0066 46.8363 17.9458C46.8363 17.9264 46.8363 17.907 46.8363 17.8877C46.828 17.8268 46.815 17.7667 46.7976 17.7078C46.7989 17.6922 46.7989 17.6765 46.7976 17.6608L46.7809 17.6221L46.7809 17.6221C46.5953 17.0909 46.1549 16.6815 45.7754 16.2554C43.587 13.8071 43.1632 10.3628 42.5676 7.17025C42.238 5.39969 41.6147 3.38292 39.8973 2.71066C39.4118 2.55706 38.9179 2.43144 38.4181 2.33441C36.8945 1.93051 35.648 0.868171 34.1577 0.34807C33.1512 0.00298881 32.0747 -0.0873145 31.0247 0.0852523C30.2242 0.218044 29.5538 0.610887 28.7809 0.796242C27.1189 1.20292 25.1023 0.749212 23.7948 2.09096C22.8779 3.02327 22.8059 4.44525 22.3543 5.65975C21.5012 7.91444 19.2851 9.55497 18.7117 11.8982C18.3433 13.4087 18.7255 14.9413 19.1272 16.4602C19.4297 17.4804 19.6337 18.5272 19.7366 19.5863C19.7519 19.8535 19.7519 20.1214 19.7366 20.3886C19.6774 21.1686 19.5009 21.9352 19.2131 22.6626C17.3405 23.3543 15.4042 24.1704 15.2602 24.6296C14.9832 25.5343 10.4624 28.1126 10.4624 28.1126C10.4624 28.1126 8.74493 29.5761 8.74493 30.1322C8.74493 30.6882 8.17429 32.4311 7.81418 32.4311C7.45407 32.4311 6.74216 39.4663 6.74216 39.4663L6.74216 46.781C6.74216 46.781 4.09673 55.418 3.48731 63.0812C3.48731 63.0812 2.41806 67.9751 4.16321 70.7831C4.39149 71.1641 4.68279 71.5036 5.02471 71.7873L5.91668 74.114C6.23046 73.5907 6.62926 73.1232 7.09673 72.7307C7.14105 73.0212 7.19091 73.3615 7.25185 73.7405C7.32665 74.2163 7.41529 74.7558 7.52886 75.334C6.97485 76.1999 5.6369 78.012 4.03025 78.6898C2.54548 79.315 4.479 80.9693 5.81418 81.9348C5.45961 83.6971 4.94715 85.8605 4.53163 86.1427C3.81418 86.6296 1.52609 92.7602 1.52609 92.7602C1.52609 92.7602 -2.98083 103.273 3.49562 104.462C9.97208 105.652 13.274 102.861 13.274 102.861L14.8253 102.861C14.8253 102.861 16.7117 101.798 16.7643 99.6017C17.8197 98.733 19.4402 97.3553 19.7699 96.7992C20.0995 96.2432 19.1909 94.4339 18.6147 93.4462L18.7671 93.1696C18.7671 93.1696 24.925 85.2989 25.7117 86.1344C26.4984 86.9699 26.9998 88.2923 26.6424 89.1305L26.9804 93.9525L26.9804 101.475C26.9804 101.475 26.0967 104.888 26.9804 105.237C27.864 105.586 26.9804 106.897 26.9804 106.897C26.9804 106.897 27.31 108.43 27.371 108.916C27.4026 109.543 27.4026 110.171 27.371 110.798L27.0746 118.323L26.5012 129.466C26.5012 129.466 25.8585 130.373 26.3599 130.999C26.8613 131.624 26.6369 133.09 26.5012 133.367C26.3654 133.643 26.2879 135.945 26.2879 135.945C26.2879 135.945 24.2103 138.103 25.8585 138.662L25.9222 138.681C25.2408 139.312 25.2325 140.731 25.2851 141.171C25.3377 141.611 24.8474 143.384 24.479 144.389C24.4054 144.644 24.2913 144.886 24.1411 145.105C23.889 145.282 24.1411 147.232 24.1411 147.232C24.1411 147.232 32.1909 147.894 32.8724 147.232C33.1494 146.975 33.0801 146.35 32.8862 145.628C32.577 144.58 32.1651 143.566 31.6563 142.599C31.1881 141.73 31.407 140.615 31.407 140.615L31.407 139.785C31.9471 139.871 32.2989 139.921 32.2989 139.921C32.2989 139.921 33.3017 139.091 32.8724 138.319C32.443 137.547 33.6591 133.237 33.6591 133.237C33.6591 133.237 35.0192 128.359 35.0192 127.873C35.0192 127.386 36.8086 121.048 36.8086 121.048C36.8086 121.048 39.4568 109.832 38.1688 104.537C38.1688 104.537 39.3128 103.215 39.1688 102.877C39.0247 102.54 38.6923 101.065 39.1826 100.44C39.6729 99.8147 41.7477 92.0104 42.3211 90.688C42.5843 90.0767 43.2435 88.3891 43.8751 86.743C46.7255 86.317 50.1217 85.5313 50.1217 85.5313C50.1217 85.5313 49.6147 83.3762 49.238 81.1741L49.5483 79.6608L49.6591 79.1379C49.915 79.3889 50.1426 79.6673 50.3377 79.9679L50.9084 77.182C50.9084 77.182 50.9721 77.0852 51.0801 76.9054C51.7477 75.8624 54.1798 72.1138 55.346 70.9768C56.7062 69.6295 55.8502 63.6372 55.346 63.012Z" transform="translate(36.96144 66.81973)" id="Shape" fill="url(#gradient_1)" stroke="none" />
    <path d="M0 0L7.89474 0L7.89474 8.85279L0 8.85279L0 0Z" transform="translate(67.04709 83.22454)" id="Rectangle-path" fill="#925978" stroke="none" />
    <path d="M0 0L7.89474 0L7.89474 8.85279L0 8.85279L0 0Z" transform="translate(67.04709 83.22454)" id="Rectangle-path" fill="#000000" fill-opacity="0.1" stroke="none" />
    <path d="M3.26039 0C3.26039 0 5.2687 3.18147 4.78393 4.01142C4.29917 4.84137 0.980609 7.53871 0.980609 7.53871L0 0.899112L3.26039 0Z" transform="translate(52.21884 159.5107)" id="Shape" fill="#FF6484" stroke="none" />
    <path d="M0 8.43782L1.46537 8.23033L2.96676 8.23033C2.96676 8.23033 4.96122 7.085 4.84765 4.70305C4.73407 2.32109 4.84765 0 4.84765 0L0 8.43782Z" transform="translate(49.24654 161.3089)" id="Shape" fill="#575988" stroke="none" />
    <path d="M0 8.43782L1.46537 8.23033L2.96676 8.23033C2.96676 8.23033 4.96122 7.085 4.84765 4.70305C4.73407 2.32109 4.84765 0 4.84765 0L0 8.43782Z" transform="translate(49.24654 161.3089)" id="Shape" fill="#000000" fill-opacity="0.1" stroke="none" />
    <path d="M14.3394 0L6.02913 9.12944C6.02913 9.12944 5.0596 15.1466 4.36708 15.6307C3.67456 16.1148 1.47512 22.2011 1.47512 22.2011C1.47512 22.2011 -2.88222 32.6447 3.38093 33.8204C9.64409 34.9962 12.8325 32.2297 12.8325 32.2297L18.151 22.6161C18.151 22.6161 24.1095 14.8008 24.8712 15.6307C25.633 16.4607 26.1178 17.7747 25.7715 18.6047L26.0956 23.3769L26.0956 30.8464C26.0956 30.8464 25.2424 34.2354 26.0956 34.5812C26.9488 34.927 26.0956 36.2411 26.0956 36.2411C26.0956 36.2411 26.4169 37.7627 26.4751 38.2468C26.5333 38.731 26.4751 40.1142 26.4751 40.1142L26.1981 47.5838L25.6441 58.6497C25.6441 58.6497 25.0208 59.5489 25.5056 60.1713C25.9904 60.7938 25.7826 62.2462 25.6441 62.5228C25.5056 62.7995 25.4363 65.0818 25.4363 65.0818C25.4363 65.0818 23.428 67.2259 25.0208 67.7792C26.6136 68.3325 31.2535 69.0241 31.2535 69.0241C31.2535 69.0241 32.223 68.1942 31.8075 67.4334C31.392 66.6726 32.5693 62.3845 32.5693 62.3845C32.5693 62.3845 33.8851 57.5431 33.8851 57.059C33.8851 56.5749 35.6164 50.2811 35.6164 50.2811C35.6164 50.2811 38.1787 39.1459 36.9322 33.8896C36.9322 33.8896 38.0402 32.5755 37.9017 32.2297C37.7632 31.8839 37.4391 30.4315 37.9017 29.809C38.3643 29.1865 40.3948 21.4404 40.9488 20.1263C41.5028 18.8122 43.8574 12.4492 43.8574 12.4492L43.8574 0.691624L14.3394 0Z" transform="translate(37.87391 137.3096)" id="Shape" fill="#575988" stroke="none" />
    <path d="M22.6419 15.5668L17.8608 24.5883L16.6004 26.962L16.4092 27.3244L4.08238 27.8085C4.08238 27.8085 3.73057 27.0311 3.23196 25.8249C2.37046 23.7362 1.06852 20.3556 0.412015 17.5033C0.249556 16.8206 0.129292 16.1286 0.0519045 15.4312C-0.130921 13.7049 0.146087 12.4738 1.25412 12.3687C1.53408 12.3433 1.81631 12.3724 2.08515 12.4545C2.85546 12.6818 3.66222 12.7597 4.46188 12.6841C7.38708 12.33 8.24304 9.24532 8.38708 6.34603C8.38708 6.14131 8.40648 5.93659 8.40925 5.73464C8.40925 5.10664 8.40925 4.49801 8.36769 3.93918C8.31221 2.99132 8.20308 2.04736 8.04082 1.11182C8.77292 0.753852 9.53956 0.471138 10.3289 0.268037C12.6669 -0.329526 15.9605 -0.312927 16.0048 4.50078C15.9999 5.56748 16.1057 6.63181 16.3206 7.67672C16.4453 8.27231 16.6454 8.84961 16.9162 9.39471C17.7278 10.9523 18.8552 11.121 19.3843 11.1016C19.4821 11.1018 19.5796 11.0916 19.6752 11.0712L22.6419 15.5668Z" transform="translate(54.38023 80.03785)" id="Shape" fill="#FFC5CB" stroke="none" />
    <path d="M0.551247 0C0.721824 0.490162 0.808904 1.00542 0.808864 1.52434C0.861171 2.07078 0.848152 2.6215 0.770083 3.16487C0.6912 3.71457 0.418055 4.21796 0 4.58409" transform="translate(64.16621 100.8278)" id="Shape" fill="#000000" fill-opacity="0.1" stroke="none" />
    <path d="M7.40997 14.8008C11.5024 14.8008 14.8199 11.4875 14.8199 7.40038C14.8199 3.31326 11.5024 0 7.40997 0C3.31756 0 0 3.31326 0 7.40038C0 11.4875 3.31756 14.8008 7.40997 14.8008Z" transform="translate(60.79501 73.6165)" id="Oval" fill="#000000" fill-opacity="0.1" stroke="none" />
    <path d="M14.8172 7.40144C14.8185 10.4451 12.953 13.1789 10.116 14.2908C7.2791 15.4027 4.04977 14.6658 1.97789 12.4337C1.91327 12.3678 1.85224 12.2986 1.79506 12.2262C-0.348774 9.7406 -0.597389 6.14179 1.18434 3.3857C2.96606 0.629613 6.35249 -0.62534 9.50311 0.302903C12.6537 1.23115 14.8159 4.12083 14.8145 7.40144L14.8172 7.40144Z" transform="translate(60.79497 73.33879)" id="Shape" fill="#FFC5CB" stroke="none" />
    <path d="M5.02637 0C5.02637 0 7.65795 6.84708 13.1981 5.74048C13.1981 5.74048 18.7909 6.17759 21.9931 2.07487C25.1953 -2.02784 25.3865 25.5901 25.3865 25.5901L24.1399 43.9181C24.1399 43.9181 15.212 49.2437 11.3338 48.552C7.45573 47.8604 5.58593 45.7855 5.58593 45.7855C5.58593 45.7855 1.50005 41.9816 0.39202 41.4975C-0.716013 41.0133 0.876785 17.4289 0.876785 17.4289L2.19257 8.57614L5.02637 0Z" transform="translate(51.28388 99.20107)" id="Shape" fill="#000000" fill-opacity="0.1" stroke="none" />
    <path d="M5.02637 0C5.02637 0 7.65795 6.84708 13.1981 5.74048C13.1981 5.74048 18.7909 6.17759 21.9931 2.07487C25.1953 -2.02784 25.3865 25.5901 25.3865 25.5901L24.1399 43.9181C24.1399 43.9181 15.212 49.2437 11.3338 48.552C7.45573 47.8604 5.58593 45.7855 5.58593 45.7855C5.58593 45.7855 1.50005 41.9816 0.39202 41.4975C-0.716013 41.0133 0.876785 17.4289 0.876785 17.4289L2.19257 8.57614L5.02637 0Z" transform="translate(51.28388 98.64777)" id="Shape" fill="#E8F4FF" stroke="none" />
    <path d="M0.00261803 0C0.00261803 0 5.9583 6.63959 5.61204 7.33122C5.26578 8.02284 -0.135886 2.00571 0.00261803 0Z" transform="translate(56.03062 137.3096)" id="Shape" fill="#000000" fill-opacity="0.1" stroke="none" />
    <path d="M0 0C0 0 1.90305 2.65584 3.09418 2.37919" transform="translate(55.00831 120.7991)" id="Shape" fill="#000000" fill-opacity="0.1" stroke="none" />
    <path d="M17.6118 3.79287C17.6118 3.79287 17.6118 3.8731 17.5924 4.02249C17.5287 4.8718 17.2904 7.95091 16.9691 11.3814C16.7891 13.3179 16.5841 15.3485 16.3735 17.1633C16.0301 20.1152 15.6644 22.4778 15.3542 22.8125C14.4539 23.7808 14.8001 32.9103 14.8001 32.9103L14.8001 44.4604C14.8001 44.4604 14.0411 48.126 13.4151 48.9559C12.7891 49.7859 11.26 52.8982 10.0356 53.3132C9.60484 53.5488 9.21786 53.8567 8.89155 54.2234C7.78352 55.3299 6.21565 57.1752 5.01344 58.6304C4.02175 59.8449 3.28768 60.7827 3.28768 60.7827C3.28768 60.7827 -1.55997 57.7396 0.517593 56.8405C2.07161 56.1682 3.35693 54.37 3.90263 53.5207C4.08823 53.244 4.17964 53.0476 4.17964 53.0476C4.27774 52.4029 4.42498 51.7666 4.62009 51.1442C4.79598 50.5575 5.05432 49.9986 5.3874 49.4843C5.64092 49.0564 6.05288 48.7454 6.53421 48.6184C8.33477 48.2726 9.23504 31.1895 9.23504 31.1895L3.69488 19.1165L3.14086 17.9103C3.14086 17.9103 3.83338 10.9249 4.17964 10.9249C4.5259 10.9249 5.07992 9.19584 5.07992 8.64254C5.07992 8.08924 6.74197 6.63683 6.74197 6.63683C6.74197 6.63683 11.1353 4.06952 11.4123 3.17041C11.5591 2.69734 13.573 1.84249 15.4483 1.1398C17.1326 0.509036 18.7032 0 18.7032 0C19.6201 1.39431 17.6118 3.79287 17.6118 3.79287Z" transform="translate(41.51011 88.69944)" id="Shape" fill="#000000" fill-opacity="0.1" stroke="none" />
    <path d="M17.6118 3.79287C17.6118 3.79287 17.6118 3.8731 17.5924 4.02249C17.5287 4.8718 17.2904 7.95091 16.9691 11.3814C16.7891 13.3179 16.5841 15.3485 16.3735 17.1633C16.0301 20.1152 15.6644 22.4778 15.3542 22.8125C14.4539 23.7808 14.8001 32.9103 14.8001 32.9103L14.8001 44.4604C14.8001 44.4604 14.0411 48.126 13.4151 48.9559C12.7891 49.7859 11.26 52.8982 10.0356 53.3132C9.60484 53.5488 9.21786 53.8567 8.89155 54.2234C7.78352 55.3299 6.21565 57.1752 5.01344 58.6304C4.02175 59.8449 3.28768 60.7827 3.28768 60.7827C3.28768 60.7827 -1.55997 57.7396 0.517593 56.8405C2.07161 56.1682 3.35693 54.37 3.90263 53.5207C4.08823 53.244 4.17964 53.0476 4.17964 53.0476C4.27774 52.4029 4.42498 51.7666 4.62009 51.1442C4.79598 50.5575 5.05432 49.9986 5.3874 49.4843C5.64092 49.0564 6.05288 48.7454 6.53421 48.6184C8.33477 48.2726 9.23504 31.1895 9.23504 31.1895L3.69488 19.1165L3.14086 17.9103C3.14086 17.9103 3.83338 10.9249 4.17964 10.9249C4.5259 10.9249 5.07992 9.19584 5.07992 8.64254C5.07992 8.08924 6.74197 6.63683 6.74197 6.63683C6.74197 6.63683 11.1353 4.06952 11.4123 3.17041C11.5591 2.69734 13.573 1.84249 15.4483 1.1398C17.1326 0.509036 18.7032 0 18.7032 0C19.6201 1.39431 17.6118 3.79287 17.6118 3.79287Z" transform="translate(41.2331 88.69944)" id="Shape" fill="#FF6484" stroke="none" />
    <path d="M17.6705 18.187L11.6899 25.189C11.6899 25.189 16.8838 52.0931 16.2605 53.3381C16.2129 53.4414 16.1821 53.5516 16.1691 53.6645C16.1051 54.3092 16.1171 54.9592 16.2051 55.6011C16.2771 56.2789 16.3879 57.0313 16.5126 57.7811C16.8782 59.9666 17.3685 62.1079 17.3685 62.1079C17.3685 62.1079 10.3741 63.7678 8.22725 63.5603C6.08044 63.3528 7.32698 59.8947 7.67324 58.3039C8.0195 56.7132 5.31867 54.4862 5.31867 54.4862L1.5098 38.8693C1.5098 38.8693 1.23279 35.4112 0.401769 33.7513C-0.429256 32.0914 0.332517 30.2931 0.0555083 27.9416C-0.141168 26.2651 1.06659 20.2729 1.97795 16.7899C2.32421 15.4647 2.62892 14.5047 2.80897 14.2807C2.81679 14.2685 2.82609 14.2573 2.83667 14.2475C3.39069 13.7633 2.83667 10.9277 2.83667 10.9277C2.83667 10.9277 4.15246 3.45812 4.01396 2.83566C3.93639 2.48155 4.3713 1.61287 4.76188 0.929543C5.05828 0.412208 5.32975 0 5.32975 0C5.32975 0 8.00842 1.69586 12.6012 5.40297L13.0167 5.74048C17.8644 9.68274 18.1414 17.6364 18.1414 17.6364L17.6705 18.187Z" transform="translate(68.72012 90.19611)" id="Shape" fill="#000000" fill-opacity="0.1" stroke="none" />
    <path d="M17.6705 18.187L11.6899 25.189C11.6899 25.189 16.8838 52.0931 16.2605 53.3381C16.2129 53.4414 16.1821 53.5516 16.1691 53.6645C16.1051 54.3092 16.1171 54.9592 16.2051 55.6011C16.2771 56.2789 16.3879 57.0313 16.5126 57.7811C16.8782 59.9666 17.3685 62.1079 17.3685 62.1079C17.3685 62.1079 10.3741 63.7678 8.22725 63.5603C6.08044 63.3528 7.32698 59.8947 7.67324 58.3039C8.0195 56.7132 5.31867 54.4862 5.31867 54.4862L1.5098 38.8693C1.5098 38.8693 1.23279 35.4112 0.401769 33.7513C-0.429256 32.0914 0.332517 30.2931 0.0555083 27.9416C-0.141168 26.2651 1.06659 20.2729 1.97795 16.7899C2.32421 15.4647 2.62892 14.5047 2.80897 14.2807C2.81679 14.2685 2.82609 14.2573 2.83667 14.2475C3.39069 13.7633 2.83667 10.9277 2.83667 10.9277C2.83667 10.9277 4.15246 3.45812 4.01396 2.83566C3.93639 2.48155 4.3713 1.61287 4.76188 0.929543C5.05828 0.412208 5.32975 0 5.32975 0C5.32975 0 8.00842 1.69586 12.6012 5.40297L13.0167 5.74048C17.8644 9.68274 18.1414 17.6364 18.1414 17.6364L17.6705 18.187Z" transform="translate(68.99712 90.19611)" id="Shape" fill="#FF6484" stroke="none" />
    <path d="M0.00201014 0C-0.0672419 0.553299 1.66406 29.9473 3.46461 31.6764L0.00201014 0Z" transform="translate(74.03677 112.1344)" id="Shape" fill="#000000" fill-opacity="0.1" stroke="none" />
    <path d="M6.07756 15.2849C4.1385 16.5022 2.65928 13.2986 1.64543 9.60528C1.17175 7.87069 0.814404 6.0282 0.537396 4.48449C0.434903 3.90906 0.34903 3.37789 0.277008 2.90206C0.0858726 1.6682 0 0.860381 0 0.860381L2.03878 0.450939L4.29363 0L4.57064 2.54241L4.70083 3.69604C4.70083 3.69604 5.0554 4.28254 5.53186 5.19825C6.86981 7.87622 9.14127 13.3788 6.07756 15.2849Z" transform="translate(44.61219 137.7245)" id="Shape" fill="#FFC5CB" stroke="none" />
    <path d="M9.14345 0.843782L8.65869 3.23127L8.35675 4.73348L8.34013 4.80817C8.34013 4.80817 2.2875 13.0025 0.34844 9.61358C-1.13355 7.02414 2.4814 2.77756 4.26534 0.921244C4.81935 0.345812 5.19609 0 5.19609 0L8.01326 0.603096L9.14345 0.843782Z" transform="translate(77.15295 143.2575)" id="Shape" fill="#FFC5CB" stroke="none" />
    <path d="M8.55709 10.4017C7.89781 11.0573 0.108341 10.4017 0.108341 10.4017C0.108341 10.4017 -0.135426 8.46511 0.108341 8.29082C0.255277 8.07215 0.365671 7.83109 0.435211 7.57707C0.792552 6.5673 1.26624 4.81057 1.21637 4.38453C1.14712 3.79803 1.18313 1.44651 2.77316 1.61803C2.77316 1.61803 4.85072 -2.60088 7.13881 2.58631L7.13881 3.83123C7.02458 4.49722 7.10836 5.18205 7.37981 5.80098C7.87293 6.76271 8.27183 7.76978 8.57095 8.80816C8.75931 9.52468 8.81471 10.1416 8.55709 10.4017Z" transform="translate(61.1188 203.1941)" id="Shape" fill="#FF6484" stroke="none" />
    <path d="M8.55709 3.46124C7.89781 4.1169 0.108341 3.46124 0.108341 3.46124C0.108341 3.46124 -0.135426 1.52469 0.108341 1.3504C0.255277 1.13173 0.365671 0.890673 0.435211 0.636647C1.46568 0.196774 2.86734 -0.229267 3.84795 0.141444C5.08618 0.611749 7.3715 1.43616 8.55709 1.86774C8.75931 2.58426 8.81471 3.20119 8.55709 3.46124Z" transform="translate(61.1188 210.1345)" id="Shape" fill="#E8F4FF" stroke="none" />
    <path d="M8.37667 0C8.57335 0.791218 8.84482 1.59074 8.8559 2.39855C8.87252 3.50515 8.39329 4.57302 7.8836 5.56896C7.30188 6.70876 6.64537 7.93155 6.83928 9.19584C6.9442 9.67506 7.08211 10.1465 7.25202 10.6068C7.68219 12.0903 7.5419 13.6808 6.85867 15.0663C6.40437 15.9821 5.47363 16.8673 4.47917 16.5713C4.40437 15.5947 4.28249 14.5296 3.81989 13.6969C3.63697 13.3588 3.38499 13.0629 3.08027 12.8282C2.36005 12.275 1.36559 12.1588 0.711853 11.5335C0.594336 11.4211 0.491072 11.2948 0.404374 11.1573C0.0858815 10.6208 -0.0501705 9.99578 0.0165621 9.37566C0.0165621 9.2816 0.0359527 9.18754 0.0525732 9.09901C0.186097 8.42586 0.411662 7.77424 0.722933 7.16246C0.894678 6.79175 1.07473 6.42104 1.25479 6.05586C1.67134 5.22913 2.02147 4.37066 2.30188 3.48855C3.98609 2.85779 5.55673 2.34876 5.55673 2.34876C6.47917 3.73201 4.47086 6.14162 4.47086 6.14162C4.47086 6.14162 4.47086 6.22185 4.45147 6.37124C7.37667 5.98393 8.24371 2.89929 8.37667 0Z" transform="translate(54.37402 86.38388)" id="Shape" fill="#000000" fill-opacity="0.1" stroke="none" />
    <path d="M6.1064 2.62505C5.29753 2.88234 4.52468 3.3969 4.16734 4.17152C3.78507 5.02914 3.98174 6.01954 3.89033 6.95462C3.86951 7.15961 3.83058 7.36235 3.77399 7.56048C3.4305 8.70858 2.35293 9.51916 1.92911 10.6258C1.89864 10.7088 1.87094 10.7918 1.84601 10.8803C1.73415 11.3159 1.71434 11.77 1.78784 12.2137C-0.240655 9.85537 -0.575472 6.48171 0.949995 3.77154C2.47546 1.06138 5.53539 -0.40643 8.60711 0.098526C11.6788 0.603482 14.1062 2.97335 14.6814 6.02884C15.2566 9.08433 13.8568 12.1728 11.1784 13.7574C11.4914 12.8251 11.8211 11.8956 12.0759 10.9439C12.6743 8.70581 12.7768 6.11914 11.3668 4.27942C10.1145 2.70926 8.03358 2.05483 6.1064 2.62505L6.1064 2.62505Z" transform="translate(60.79388 73.35126)" id="Shape" fill="#000000" fill-opacity="0.1" stroke="none" />
    <path d="M11.5673 8.95238C11.3235 9.8349 10.703 10.8032 9.78889 10.7617C9.35399 10.7423 8.95787 10.485 8.52296 10.4435C7.90524 10.3882 7.32075 10.7866 6.94956 11.2735C6.61282 11.7962 6.32003 12.3458 6.07421 12.9168C5.39277 14.2392 4.05759 15.4288 2.58391 15.2213L2.43155 15.1936C2.2805 15.1635 2.13292 15.1181 1.99111 15.058C0.669778 14.5047 -0.0449035 12.8061 0.00218793 11.3039C0.0575896 9.59145 0.775041 7.97028 1.0105 6.27165C1.22933 4.70581 1.02989 3.10954 1.19886 1.53817C1.25635 1.01979 1.34889 0.505895 1.47587 0C2.28751 1.55754 3.41493 1.72629 3.94402 1.70693C4.24042 1.18959 4.51188 0.777386 4.51188 0.777386C4.51188 0.777386 7.19055 2.47325 11.7834 6.18036C11.8875 7.1097 11.8142 8.05034 11.5673 8.95238L11.5673 8.95238Z" transform="translate(69.80391 89.42426)" id="Shape" fill="#000000" fill-opacity="0.1" stroke="none" />
    <path d="M16.5671 0.350071C18.0048 0.867406 19.2153 1.92144 20.689 2.32258C21.1733 2.41777 21.6515 2.54156 22.1211 2.69329C23.7832 3.36002 24.3871 5.36296 24.7056 7.11969C25.279 10.2901 25.6918 13.7095 27.8081 16.1412C28.1848 16.5728 28.6225 16.9878 28.797 17.5245C28.9715 18.0612 28.7361 18.8026 28.1738 18.9216C29.1378 19.3282 29.6114 20.5178 29.4092 21.5442C29.207 22.5706 28.4563 23.4171 27.5727 23.9815C27.1599 24.2581 26.6613 24.5348 26.6059 25.0217C26.6025 25.2829 26.6624 25.5411 26.7804 25.7742C27.3513 27.2533 27.4338 28.876 27.0159 30.4053C26.7721 31.285 26.1516 32.2561 25.2375 32.2146C24.8026 32.1952 24.4064 31.9379 23.9743 31.8964C23.3538 31.8411 22.7721 32.2395 22.3981 32.7264C22.0608 33.2487 21.768 33.7984 21.5228 34.3697C20.8441 35.6921 19.5089 36.8817 18.0325 36.6742C16.3344 36.4335 15.3981 34.461 15.4508 32.7568C15.5034 31.0527 16.2264 29.4232 16.4619 27.7246C16.6779 26.1587 16.4785 24.5625 16.6502 22.9911C16.8995 20.6894 17.9272 18.5509 18.5256 16.3155C19.1239 14.0802 19.2236 11.4908 17.8137 9.65104C16.5627 8.07707 14.4797 7.42011 12.5505 7.99114C11.7389 8.24842 10.9688 8.76299 10.6114 9.53761C10.1461 10.5833 10.5422 11.8283 10.2153 12.9266C9.84689 14.1604 8.62806 15.007 8.27626 16.2464C7.86628 17.7375 8.83027 19.2535 8.85797 20.7973C8.87459 21.9039 8.39537 22.9717 7.88844 23.9677C7.30396 25.1075 6.64745 26.3302 6.84412 27.5945C6.9481 28.0737 7.08508 28.5451 7.25409 29.0054C7.69355 30.4963 7.55714 32.0975 6.87182 33.4927C6.41753 34.4084 5.47016 35.2937 4.49232 34.9977C4.38429 33.6283 4.19038 32.0846 3.09343 31.2546C2.37044 30.7013 1.37598 30.5851 0.722239 29.9571C0.177778 29.3762 -0.0791325 28.5831 0.0214078 27.7937C0.125497 27.0151 0.364523 26.2606 0.727779 25.5639C1.52279 23.8487 2.48955 22.139 2.60036 20.2523C2.76656 17.4055 0.938305 14.6003 1.60313 11.8227C2.15714 9.49888 4.30673 7.86941 5.12113 5.62301C5.55603 4.41682 5.62529 3.00314 6.50617 2.07637C7.78041 0.74568 9.72778 1.19662 11.34 0.795477C12.0879 0.607355 12.725 0.220045 13.5117 0.09002C14.5355 -0.0893249 15.5884 0.000290932 16.5671 0.350071L16.5671 0.350071Z" transform="translate(54.36086 67.40422)" id="Shape" fill="#925978" stroke="none" />
    <path d="M6.65097 23.502C6.65097 23.502 6.65097 29.7266 6.65097 32.4931C6.65097 32.8638 6.65097 33.2484 6.62881 33.6357C6.53463 36.1255 6.15512 38.7177 6.15512 38.7177C5.71188 38.0659 5.17842 37.48 4.57064 36.9776C3.24377 35.9346 2.11357 36.0674 1.26316 36.5433C0.895742 36.756 0.563162 37.0238 0.277008 37.3372C0.0858726 36.1034 0 35.2956 0 35.2956L2.03878 34.8861C2.2923 34.4582 2.70426 34.1472 3.1856 34.0202C4.98615 33.6744 5.88643 16.5913 5.88643 16.5913L0.34626 4.51828L0.34626 3.92901L2.21884 0.955028C5.33518 -1.74231 6.09695 2.13079 6.09695 2.13079C6.09695 2.13079 6.65097 12.6435 6.65097 12.9201C6.65097 13.1968 6.65097 23.502 6.65097 23.502Z" transform="translate(44.60942 103.2894)" id="Shape" fill="#000000" fill-opacity="0.1" stroke="none" />
    <path d="M9.77302 23.502C9.77302 23.502 9.77302 29.7266 9.77302 32.4931C9.77302 32.8638 9.77302 33.2484 9.75086 33.6357C9.65668 36.1255 9.27717 38.7177 9.27717 38.7177C5.39906 33.2539 2.66222 38.3304 2.66222 38.3304L1.79795 36.0204C1.46718 35.7371 1.18628 35.4005 0.966924 35.0244C-0.720056 32.2358 0.313185 27.3751 0.313185 27.3751C0.903213 19.7672 3.46277 11.1911 3.46277 11.1911L3.46277 3.92901L5.34089 0.955028C8.45723 -1.74231 9.77302 2.13079 9.77302 2.13079C9.77302 2.13079 9.77302 12.6435 9.77302 12.9201C9.77302 13.1968 9.77302 23.502 9.77302 23.502Z" transform="translate(40.93335 102.6724)" id="Shape" fill="#FF6484" stroke="none" />
    <path d="M8.78393 0.529567C8.68975 3.01941 8.31025 5.61162 8.31025 5.61162C4.43213 0.147791 1.69529 5.22431 1.69529 5.22431L0.831025 2.91429C0.500256 2.631 0.219358 2.29436 0 1.91835C1.80609 0.925176 5.7867 -0.906245 8.78393 0.529567Z" transform="translate(41.90582 135.5019)" id="Shape" fill="#000000" fill-opacity="0.1" stroke="none" />
    <path d="M8.78393 0.529567C8.68975 3.01941 8.31025 5.61162 8.31025 5.61162C4.43213 0.147791 1.69529 5.22431 1.69529 5.22431L0.831025 2.91429C0.500256 2.631 0.219358 2.29436 0 1.91835C1.80609 0.925176 5.7867 -0.906245 8.78393 0.529567Z" transform="translate(41.90582 135.7785)" id="Shape" fill="#FF6484" stroke="none" />
    <path d="M8.78393 0.529567C8.68975 3.01941 8.31025 5.61162 8.31025 5.61162C4.43213 0.147791 1.69529 5.22431 1.69529 5.22431L0.831025 2.91429C0.500256 2.631 0.219358 2.29436 0 1.91835C1.80609 0.925176 5.7867 -0.906245 8.78393 0.529567Z" transform="translate(41.90582 135.7785)" id="Shape" fill="#FFFFFF" fill-opacity="0.1" stroke="none" />
    <path d="M0 0C0 0 1.24654 6.84708 2.49307 8.85279C3.73961 10.8585 0 0 0 0Z" transform="translate(45.44321 117.5983)" id="Shape" fill="#000000" fill-opacity="0.1" stroke="none" />
    <path d="M0 0C0 0 0.761773 4.14975 2.35457 4.63388C3.94737 5.11802 0 0 0 0Z" transform="translate(42.25208 129.2176)" id="Shape" fill="#000000" fill-opacity="0.1" stroke="none" />
    <path d="M6.48983 38.8328L7.62002 39.0735L7.13526 41.4609C6.95123 41.2186 6.74739 40.9919 6.52584 40.7831C5.4998 39.8058 4.15777 39.2269 2.74191 39.1509C2.12634 39.1114 1.50825 39.1505 0.902571 39.2671C1.16623 38.3275 1.34059 37.3651 1.42335 36.3927C1.47264 36.0274 1.41189 35.6556 1.24883 35.3249C0.694815 34.5641 0.417807 27.5095 0.417807 27.5095C0.417807 27.5095 0.902571 23.913 1.17958 23.2214C1.45659 22.5298 -0.0669577 18.9942 0.00229435 17.9263C0.0715464 16.8585 0.902571 7.65988 0.902571 7.17574C0.902571 6.6916 2.70313 -2.78365 6.44274 0.812794L7.89703 2.8185L7.99121 3.35521L2.0106 10.3572C2.0106 10.3572 7.20451 37.2614 6.58124 38.5063C6.53369 38.6096 6.50284 38.7198 6.48983 38.8328Z" transform="translate(78.67638 105.0279)" id="Shape" fill="#000000" fill-opacity="0.1" stroke="none" />
    <path d="M12.1907 32.8267C11.0605 33.9554 8.70867 37.6791 8.06324 38.7138L7.89703 38.9905L7.34301 41.757C7.34301 41.757 5.40396 38.4372 0.902571 39.2671C1.16623 38.3275 1.34059 37.3651 1.42335 36.3927C1.47264 36.0274 1.41189 35.6556 1.24883 35.3249C0.694815 34.5641 0.417807 27.5095 0.417807 27.5095C0.417807 27.5095 0.902571 23.913 1.17958 23.2214C1.45659 22.5298 -0.0669577 18.9942 0.00229435 17.9263C0.0715464 16.8585 0.902571 7.65988 0.902571 7.17574C0.902571 6.6916 2.70313 -2.78365 6.44274 0.812794L7.89703 2.8185L9.00506 9.11229L11.1519 20.04C11.1519 20.04 11.7059 24.328 12.1907 24.9505C12.6754 25.5729 13.5009 31.5126 12.1907 32.8267Z" transform="translate(79.23593 105.0362)" id="Shape" fill="#FF6484" stroke="none" />
    <path d="M7.16067 2.32109L6.99446 2.59774L6.44044 5.36424C6.44044 5.36424 4.50139 2.04444 0 2.87439C0.263657 1.93474 0.438021 0.972346 0.520776 0C2.06371 0.0968274 5.17175 0.531168 7.16067 2.32109Z" transform="translate(80.13297 141.1522)" id="Shape" fill="#000000" fill-opacity="0.1" stroke="none" />
    <path d="M7.16067 2.32109L6.99446 2.59774L6.44044 5.36424C6.44044 5.36424 4.50139 2.04444 0 2.87439C0.263657 1.93474 0.438021 0.972346 0.520776 0C2.06371 0.0968274 5.17175 0.531168 7.16067 2.32109Z" transform="translate(80.13297 141.4289)" id="Shape" fill="#FF6484" stroke="none" />
    <path d="M7.16067 2.32109L6.99446 2.59774L6.44044 5.36424C6.44044 5.36424 4.50139 2.04444 0 2.87439C0.263657 1.93474 0.438021 0.972346 0.520776 0C2.06371 0.0968274 5.17175 0.531168 7.16067 2.32109Z" transform="translate(80.13297 141.4289)" id="Shape" fill="#FFFFFF" fill-opacity="0.1" stroke="none" />
    <path d="M0 0.000119258C0 0.000119258 4.70914 -0.0579772 5.40166 2.39037C6.09418 4.83872 0 0.000119258 0 0.000119258Z" transform="translate(82.76454 124.3069)" id="Shape" fill="#000000" fill-opacity="0.1" stroke="none" />
    <path d="M0 0.00960589C0 0.00960589 7.96399 -0.336206 7.61773 3.12192C7.27147 6.58004 0 0.00960589 0 0.00960589Z" transform="translate(81.86427 131.2137)" id="Shape" fill="#000000" fill-opacity="0.1" stroke="none" />
    <path d="M0 0.00354112C0 0.00354112 0.623269 -0.134784 1.03878 1.31763C1.45429 2.77004 0 0.00354112 0 0.00354112Z" transform="translate(82.34903 136.5452)" id="Shape" fill="#000000" fill-opacity="0.1" stroke="none" />
    <path d="M0 0.24623C0 0.24623 1.89751 -0.307787 2.77008 0.24623C3.64266 0.800246 0 0.24623 0 0.24623Z" transform="translate(66.21883 170.1233)" id="Shape" fill="#000000" fill-opacity="0.1" stroke="none" />
    <path d="M0 0C0 0 4.50139 0.0691624 4.9169 0.553299C5.33241 1.03744 0 0 0 0Z" transform="translate(66.55956 172.3749)" id="Shape" fill="#000000" fill-opacity="0.1" stroke="none" />
    <g id="Group" transform="translate(54.29363 74.14214)" opacity="0.1">
      <path d="M1.13449 6.71152C1.26745 4.44853 0.151108 2.21596 0.012604 0C-0.13144 2.23533 1.00429 4.48726 1.12064 6.76685C1.12652 6.74875 1.13115 6.73026 1.13449 6.71152L1.13449 6.71152Z" transform="translate(1.544183 5.972868)" id="Shape" fill="#000000" stroke="none" />
      <path d="M1.07928 2.70287C0.503107 3.82607 -0.139553 5.02673 0.0266524 6.27442C0.145766 5.32551 0.633301 4.40703 1.07928 3.53558C1.58621 2.53964 2.06543 1.48284 2.05158 0.365178C2.05158 0.243452 2.04327 0.121726 2.02665 0C1.9297 0.946142 1.51419 1.84802 1.07928 2.70287Z" transform="translate(6.887475 13.72183)" id="Shape" fill="#000000" stroke="none" />
      <path d="M0 0.603096C0.205497 0.689929 0.393282 0.813707 0.554017 0.968274C0.692252 0.677971 0.71791 0.346817 0.626039 0.038731C0.626039 0.038731 0.626039 0.0138325 0.612188 0C0.532425 0.29685 0.298297 0.5275 0 0.603096Z" transform="translate(28.23546 10.76167)" id="Shape" fill="#000000" stroke="none" />
      <path d="M6.87192 4.99906C6.41763 5.91477 5.47026 6.80005 4.49242 6.50404C4.38439 5.13462 4.19048 3.59091 3.09353 2.76096C2.37054 2.20766 1.37608 2.09147 0.725106 1.46624C0.335161 1.0702 0.0927272 0.552761 0.0381257 0C0.0381257 0.044264 0.0242753 0.0885279 0.0215052 0.132792C-0.0794932 0.922703 0.178614 1.71632 0.725106 2.29619C1.37608 2.92419 2.37054 3.04868 3.09353 3.59368C4.20156 4.42363 4.38439 5.96733 4.49242 7.33675C5.47026 7.63277 6.41763 6.74749 6.87192 5.83178C7.34547 4.85989 7.55651 3.78129 7.48411 2.70287C7.43166 3.50077 7.22371 4.28076 6.87192 4.99906Z" transform="translate(0.06713745 20.92302)" id="Shape" fill="#000000" stroke="none" />
      <path d="M2.80602 0.0580964C2.60381 1.0817 1.85312 1.93102 0.97223 2.49538C0.556717 2.77203 0.0581022 3.04868 0.00270053 3.53558C-0.0100083 3.72485 0.0222635 3.91444 0.0968833 4.08888C0.323853 3.77142 0.62412 3.5133 0.97223 3.3364C1.85312 2.7831 2.60381 1.92272 2.80602 0.899112C2.86005 0.601836 2.86005 0.297276 2.80602 0C2.80704 0.0193521 2.80704 0.0387443 2.80602 0.0580964Z" transform="translate(26.66489 13.92931)" id="Shape" fill="#000000" stroke="none" />
      <path d="M11.5647 1.56307C11.3209 2.44282 10.7032 3.41386 9.78626 3.37236C9.35136 3.35299 8.95524 3.09571 8.5231 3.05421C7.9026 2.99888 7.32089 3.39726 6.94693 3.88416C6.61003 4.40628 6.31812 4.95602 6.07435 5.52746C5.39291 6.84985 4.05773 8.03944 2.58404 7.83195C1.11036 7.62447 0.165761 6.03926 0.0217169 4.48726C0.0217169 4.57302 0.00232627 4.65878 0.00232627 4.74731C-0.0530754 6.45977 0.883213 8.42398 2.58404 8.66467C4.05773 8.87216 5.39291 7.68256 6.07435 6.36018C6.31753 5.78846 6.60947 5.23867 6.94693 4.71688C7.32089 4.22167 7.9026 3.8233 8.5231 3.88693C8.95524 3.92843 9.35413 4.18571 9.78626 4.20508C10.7032 4.24657 11.3209 3.27553 11.5647 2.39579C11.7791 1.61634 11.8624 0.80672 11.8112 0C11.7859 0.528403 11.7033 1.0525 11.5647 1.56307Z" transform="translate(15.51291 21.28543)" id="Shape" fill="#000000" stroke="none" />
      <path d="M9.64076 2.70969C10.343 3.67625 10.7299 4.83545 10.7488 6.02948C10.8208 4.52451 10.5383 3.04167 9.64076 1.86314C8.38983 0.289174 6.30677 -0.367781 4.3776 0.20324C3.56597 0.460524 2.79588 0.975093 2.43854 1.74971C1.9704 2.79545 2.36652 4.04314 2.03965 5.13867C1.67123 6.37253 0.452394 7.21908 0.100593 8.45847C-0.00191496 8.85577 -0.0263731 9.26914 0.0285712 9.67573C0.0434623 9.54601 0.0675298 9.41751 0.100593 9.29118C0.441314 8.05179 1.66015 7.20524 2.03965 5.97139C2.36652 4.86479 1.9704 3.62816 2.43854 2.58243C2.7848 1.80781 3.54658 1.29324 4.3776 1.03596C6.30961 0.468036 8.39327 1.13066 9.64076 2.70969Z" transform="translate(8.234587 0.2255671)" id="Shape" fill="#000000" stroke="none" />
    </g>
    <g id="Group" transform="translate(134.903 138.6015)" opacity="0.8">
      <path d="M22.2161 44.3746C34.4857 44.3746 44.4321 34.441 44.4321 22.1873C44.4321 9.9336 34.4857 0 22.2161 0C9.94647 0 0 9.9336 0 22.1873C0 34.441 9.94647 44.3746 22.2161 44.3746Z" transform="translate(0.1828255 0.1715228)" id="c40b9370-e8cf-4f46-b0aa-8f4512275a8b" fill="#1769FF" stroke="none" />
      <path d="M9.47368 0.000429282C10.3546 -0.00684976 11.2339 0.0784591 12.097 0.254947C12.8217 0.395981 13.5116 0.677981 14.1274 1.0849C14.6918 1.47271 15.1437 2.00233 15.4377 2.6203C15.7719 3.36388 15.932 4.17377 15.9058 4.98842C15.937 5.88365 15.6956 6.76727 15.2133 7.52254C14.6917 8.24749 13.986 8.82046 13.169 9.18244C14.2855 9.45893 15.2673 10.1227 15.9391 11.0554C17.0339 12.8276 17.1558 15.0329 16.2632 16.9148C15.8854 17.6384 15.3391 18.2608 14.6704 18.7296C13.9771 19.2108 13.2031 19.564 12.385 19.7726C11.5249 19.9968 10.6396 20.1102 9.75069 20.1101L0 20.1101L0 0.000429282L9.47368 0.000429282ZM8.91967 8.13947C9.60891 8.16921 10.2893 7.97508 10.8587 7.58617C11.3684 7.2173 11.6223 6.60682 11.6205 5.75474C11.6356 5.35477 11.5479 4.95761 11.3657 4.60111C11.2064 4.31065 10.9733 4.0673 10.6898 3.89566C10.3895 3.72094 10.0601 3.60191 9.71745 3.54431C9.33966 3.47879 8.95685 3.44639 8.57341 3.44749L4.41828 3.44749L4.41828 8.15053L8.91967 8.13947ZM9.17451 16.6713C9.59154 16.6733 10.0076 16.6306 10.4155 16.5441C10.786 16.4703 11.1393 16.3276 11.4571 16.1236C11.7621 15.9223 12.0101 15.646 12.1773 15.3213C12.3728 14.9173 12.4678 14.4723 12.4543 14.0238C12.4543 12.9947 12.1634 12.256 11.5789 11.8106C10.9028 11.3396 10.0893 11.1061 9.26593 11.1466L4.44598 11.1466L4.44598 16.6796L9.17451 16.6713ZM22.4432 16.2481C23.0452 16.8309 23.9095 17.1223 25.036 17.1223C25.7811 17.1405 26.5133 16.9258 27.1302 16.5081C27.6233 16.2157 28.0015 15.7638 28.2022 15.2272L31.7258 15.2272C31.1607 16.9738 30.2955 18.2224 29.1302 18.9731C27.8567 19.7564 26.3813 20.1498 24.8864 20.1046C23.8274 20.1186 22.7753 19.9308 21.7867 19.5513C20.9007 19.2089 20.1014 18.6751 19.446 17.9882C18.7923 17.2904 18.288 16.4667 17.964 15.5675C17.6081 14.5736 17.4317 13.5245 17.4432 12.469C17.4334 11.4305 17.6146 10.399 17.9778 9.42589C18.6531 7.59703 20.0572 6.12956 21.856 5.37297C22.8152 4.96827 23.848 4.76668 24.8892 4.78094C26.0128 4.75491 27.126 5.00175 28.133 5.50023C29.0298 5.96055 29.8067 6.62367 30.4017 7.43677C31.0048 8.26711 31.4404 9.20675 31.6842 10.2033C31.9479 11.2616 32.0414 12.3551 31.9612 13.4428L21.4349 13.4428C21.4903 14.732 21.8199 15.6726 22.4211 16.2508L22.4432 16.2481ZM26.9695 8.5904C26.4894 8.06477 25.7609 7.80195 24.7839 7.80195C24.2348 7.78263 23.689 7.89355 23.1911 8.12563C22.7985 8.31572 22.4524 8.58959 22.1773 8.92792C21.9335 9.22701 21.7509 9.57104 21.6399 9.94045C21.5459 10.2523 21.4847 10.5731 21.4571 10.8977L27.9612 10.8977C27.7765 9.88513 27.4423 9.11604 26.9585 8.5904L26.9695 8.5904ZM20.759 1.01573L28.8947 1.01573L28.8947 3.27043L20.759 3.27043L20.759 1.01573Z" transform="translate(6.401662 12.30219)" id="2e22f7a4-7c1b-458a-b567-b65e93177032" fill="#FFFFFF" stroke="none" />
    </g>
    <g id="Group" transform="translate(213.0194 151.6041)" opacity="0.8">
      <path d="M44.4217 22.1907C44.4217 22.3982 44.4217 22.6085 44.4217 22.8187C44.1086 33.7953 35.8048 42.8929 24.8898 44.2176C24.0027 44.3232 23.1101 44.3759 22.2167 44.3753C13.2309 44.3753 5.12994 38.9692 1.69148 30.678C-1.74698 22.3869 0.154239 12.8435 6.50856 6.49818C12.8629 0.152874 22.4189 -1.74469 30.7204 1.69035C39.0218 5.1254 44.4339 13.2165 44.4328 22.1907L44.4217 22.1907Z" transform="translate(0.2541981 0.1598086)" id="Shape" fill="#B3BBC6" stroke="none" />
      <path d="M37.6704 7.82089C37.3573 18.7974 29.0534 27.895 18.1385 29.2197L0 15.7441L2.26593 1.0817L11.2355 1.635L16.3379 5.90647L19.9668 0L26.0609 5.05716L29.338 7.40038L29.338 0.00553299L37.5983 7.64107C37.6177 7.70193 37.6482 7.76003 37.6704 7.82089Z" transform="translate(6.99446 15.15764)" id="Shape" fill="#666C76" stroke="none" />
      <path d="M13.8504 7.89005C13.8504 3.18701 10.9557 0 5.44321 0L0 0L0 15.8299L5.55679 15.8299C10.9086 15.8299 13.8504 12.5931 13.8504 7.89005ZM9.89751 7.91495C9.89751 11.3094 8.15235 12.7785 5.3518 12.7785L3.92521 12.7785L3.92521 3.05145L5.3518 3.05145C8.03878 3.05145 9.89751 4.58685 9.89751 7.91495ZM29.4931 15.8299L29.4931 0L25.8393 0L25.8393 8.85279L20.0055 0L16.1911 0L16.1911 15.8271L19.8449 15.8271L19.8449 6.35464L26.0914 15.8271L29.4931 15.8271L29.4931 15.8299Z" transform="translate(7.019391 15.00548)" id="Shape" fill="#FFFFFF" stroke="none" />
    </g>
    <path d="M84.2438 146.934C83.9668 146.381 81.3823 142.679 81.3823 142.679L81.3823 142.679L81.3047 142.347L80.4571 138.571L80.3989 138.295C80.9529 138.153 81.3518 137.979 81.4765 137.761C82.0859 136.696 80.9613 135.401 80.9613 135.401L80.7258 129.801L80.1164 116.246C80.1164 116.246 78.8504 111.709 78.6621 110.646C78.4737 109.584 76.7396 107.36 76.7396 107.36C76.7396 107.36 77.1136 106.253 76.6455 105.462C76.1773 104.671 75.1441 100.972 75.1441 100.972L74.2549 90.7357L73.8311 80.6657C74.256 80.6626 74.6801 80.7024 75.097 80.7846C75.1579 80.8344 75.1247 80.7099 75.036 80.4858C75.0575 80.4894 75.0782 80.4969 75.097 80.508C75.241 80.6242 74.856 79.7583 74.4405 78.8757L74.3906 78.7734C74.5901 78.0513 75.4155 75.1271 75.989 74.0703C76.4155 73.2902 75.5956 67.9038 74.9696 64.2244C74.9252 63.9616 74.8809 63.7098 74.8394 63.4664C75.856 61.6903 77.0222 59.6763 77.0222 59.6763C77.0222 59.6763 79.9751 51.255 81.1939 47.5977C82.4128 43.9404 81.1939 34.4569 81.1939 34.4569L81.1939 34.4569C81.1939 34.4569 81.1939 33.9921 81.1275 33.2673C80.9363 31.3086 80.205 27.477 77.3961 25.9886C73.5513 23.9525 72.3324 21.4543 72.3324 21.4543C72.3324 21.4543 67.5347 17.0943 66.928 18.5578L66.8865 18.4748C66.5281 17.7431 66.2646 16.9687 66.1025 16.1703C66.0859 16.0873 66.0721 16.0043 66.0582 15.9241C66.6713 15.4407 67.2042 14.8637 67.6371 14.2144C67.6371 14.3361 67.6178 14.4579 67.6094 14.5796L67.6094 14.5796C67.6094 14.657 67.6094 14.7345 67.6094 14.8092L67.6094 14.9143C67.6067 14.965 67.6067 15.0158 67.6094 15.0665C67.6094 15.0969 67.6094 15.1273 67.6094 15.1578C67.9728 15.1932 68.3202 15.0005 68.482 14.6736C68.6323 14.3543 68.7323 14.0137 68.7784 13.6639C68.9404 12.9189 69.238 12.2099 69.6565 11.5724C70.0665 10.9444 70.615 10.3136 70.687 9.59712C70.6981 9.49228 70.6981 9.38657 70.687 9.28173C70.651 8.91656 70.4793 8.57628 70.4266 8.21387C70.404 8.03012 70.404 7.84431 70.4266 7.66057L70.4266 7.66057C70.4266 7.55267 70.4516 7.44478 70.4682 7.33965C70.4848 7.23453 70.5125 7.063 70.5319 6.90808C70.5513 6.75316 70.5679 6.6674 70.5817 6.54567L70.5817 6.53184C70.6205 6.21302 70.6205 5.89068 70.5817 5.57186C70.5338 4.97395 70.1995 4.43603 69.6842 4.12775C69.4072 3.98666 69.0887 3.9424 68.8117 3.8013C68.0804 3.42783 67.8477 2.53148 67.4266 1.83986C66.8199 0.904454 65.799 0.318427 64.6842 0.26572C63.5762 0.221456 62.4903 0.705593 61.4017 0.54237C60.7064 0.43171 60.0665 0.0554662 59.3629 0.00566926C58.3352 -0.0662597 57.41 0.558969 56.5762 1.1593C55.9862 1.58257 55.3574 2.06118 55.1635 2.75833C55.0083 3.32823 55.1635 3.98389 54.8421 4.48186C54.6344 4.80554 54.2576 4.9909 54.025 5.31181C53.8328 5.56702 53.7349 5.88078 53.748 6.19986C53.748 6.22752 53.748 6.25795 53.748 6.28838C53.748 6.31882 53.748 6.38798 53.748 6.43778C53.7673 6.6508 53.8061 6.86658 53.8421 7.07684C53.8433 7.09895 53.8433 7.12112 53.8421 7.14323L53.8421 7.14323C53.9252 7.72696 53.7369 8.1364 53.5263 8.7063C53.4366 8.94659 53.3861 9.19973 53.3768 9.45602C53.3768 9.45602 53.3768 9.48092 53.3768 9.49475C53.3768 9.50859 53.3768 9.53072 53.3768 9.55009C53.3739 9.60353 53.3739 9.65709 53.3768 9.71054L53.3768 9.71054C53.4016 9.90945 53.4889 10.0954 53.6261 10.2417C53.695 10.1288 53.79 10.0339 53.9031 9.96506C53.9031 10.0481 53.9031 10.131 53.9031 10.2168L53.9031 10.2334C53.9045 12.2037 54.7038 14.0896 56.1191 15.4621C56.1191 15.5423 56.097 15.6253 56.0859 15.7055C55.9668 16.5355 55.8089 17.4484 55.6178 18.3226L55.5513 18.5993L54.1662 18.5993C54.1662 18.5993 54.4017 17.5812 52.1025 18.8317C49.8034 20.0821 46.989 20.6825 46.5624 20.9121C46.1358 21.1417 40.9363 25.1725 40.9363 25.1725C40.9363 25.1725 36.4322 27.7619 36.5734 32.2049L36.5734 32.2049L36.0582 37.1846L35.6842 46.4856C35.6842 46.4856 34.9806 54.4005 35.6842 55.5099C36.3878 56.6193 37.6067 63.1925 37.3712 64.0252C37.2022 64.6283 38.9003 68.8666 40.0804 71.337C39.7636 71.6706 39.4702 72.0256 39.2022 72.3994C39.2022 72.3994 38.7313 74.2529 38.7313 74.4383C38.7313 74.4383 38.7313 74.4576 38.7535 74.4687C37.7147 75.52 36.0582 77.249 36.0582 77.6308C36.0582 78.1841 36.3878 78.6683 35.8726 78.6351C35.3574 78.6019 35.3407 79.205 35.3712 79.5729C35.4017 79.9408 34.7452 79.3903 34.7923 80.0819C34.8394 80.7736 30.0083 91.6514 30.0083 91.6514C30.0083 91.6514 27.8061 96.9742 26.9612 97.8539C26.1164 98.7337 24.9446 102.621 25.0388 104.054C25.133 105.487 25.1801 105.907 24.8034 105.907C24.4266 105.907 23.6787 107.202 23.6787 107.202L19.9751 118.586C19.9751 118.586 18.8948 122.102 18.5679 122.058C18.241 122.014 17.5042 128.1 17.5042 128.1C17.5042 128.1 16.7092 129.904 16.5679 129.904C16.5402 129.904 16.6704 130.034 16.9114 130.239L16.7507 130.374C16.4025 130.672 16.0372 130.949 15.6565 131.204C15.6427 131.204 13.5153 129.729 12.0554 129.868C10.5956 130.006 7.60114 130.374 6.09698 129.315C5.26596 128.722 3.5125 128.208 2.10252 128.186C0.977869 128.169 0.0665117 128.462 0.00279981 129.315C-0.138474 131.21 5.1136 134.776 5.1136 134.776C5.1136 134.776 10.6538 136.347 11.7258 137.819C12.7978 139.291 17.2272 141.52 17.2272 141.52C17.2272 141.52 18.5596 140.934 19.061 140.345L19.061 140.345C19.1821 140.231 19.2486 140.071 19.2438 139.905C19.1496 139.21 21.0721 136.585 21.0721 136.585L21.3491 135.282C21.4848 134.637 21.6565 133.852 21.8255 133.163C21.8477 133.069 21.8698 132.976 21.892 132.886C22.1117 132.897 22.3313 132.863 22.5374 132.786C24.4128 132.048 24.6011 130.02 24.6011 130.02L27.4072 124.158C27.4072 124.158 28.6261 120.78 29 120.177C29.374 119.574 32.2826 113.515 32.2826 113.515C32.2826 113.515 32.7978 110.923 33.2687 110.137C33.7396 109.351 33.784 107.647 33.784 107.647C33.784 107.647 34.7673 105.055 35.8006 104.037C36.5446 103.238 37.19 102.353 37.723 101.401C37.723 101.401 41.9889 94.689 44.8975 92.794C44.8975 92.794 51.8865 84.2787 52.3075 83.5373C52.7286 82.7959 54.0416 80.8538 55.6316 82.6105C57.2216 84.3672 58.9114 86.6385 58.9114 86.6385L61.7757 94.4124L64.964 104.372C64.964 104.372 66.4626 106.776 66.3712 107.285C66.2798 107.794 68.8089 112.331 68.8089 112.331C68.8089 112.331 69.7923 113.991 69.6067 114.821C69.4211 115.651 70.3103 116.481 70.3103 116.481L70.5873 119.859C70.5873 119.859 71.6205 123.178 71.338 123.701C71.0554 124.224 72.3241 127.403 72.3241 127.403C72.3241 127.403 72.3241 130.225 72.7923 131.151C73.2604 132.078 73.8311 135.777 73.784 136.054C73.7369 136.33 73.784 138.878 73.784 138.878C73.784 138.878 74.1136 138.878 74.6372 138.862L74.6593 139.138L74.892 141.924L74.9142 142.182C74.6597 142.378 74.503 142.674 74.4848 142.995C74.4848 143.747 74.5956 145.958 74.6898 147.698C74.7119 148.16 74.7369 148.586 74.759 148.943C74.774 149.195 74.8925 149.43 75.0866 149.591C75.2806 149.753 75.533 149.828 75.784 149.798C77.1175 149.63 78.4695 149.68 79.7867 149.947C81.2462 150.282 82.7483 150.392 84.241 150.274C84.241 150.274 84.3435 149.231 84.3601 148.295C84.374 147.698 84.3518 147.147 84.2438 146.934Z" transform="translate(156.7479 3.416488)" id="Shape" fill="url(#gradient_2)" stroke="none" />
    <path d="M6.7867 5.62429L0.462604 5.62429L0.401662 4.8801L0.171745 2.10254L0 0L5.54017 0L5.87812 1.52987L6.71191 5.29231L6.7867 5.62429L6.7867 5.62429Z" transform="translate(230.6177 140.6017)" id="Shape" fill="#FFAAB0" stroke="none" />
    <path d="M8.1126 2.16893C7.99349 2.28513 7.79681 2.98505 7.59736 3.82883C7.24002 5.31168 6.86606 7.23992 6.86606 7.23992L6.63338 7.29525L1.70263 8.48485C1.70263 8.48485 -0.881859 2.58391 0.317586 2.44558C0.740685 2.35718 1.14011 2.17989 1.48933 1.92548C1.88468 1.6637 2.26308 1.37726 2.6223 1.06787C3.27881 0.514569 3.78019 0 3.78019 0C3.78019 0 8.4367 1.84525 8.1126 2.16893Z" transform="translate(171.1644 132.897)" id="Shape" fill="#FFAAB0" stroke="none" />
    <path d="M5.50139 2.17447C5.38227 2.29066 5.1856 2.99058 4.98615 3.83437C3.28255 3.73477 0.706371 1.71523 0 1.06787C0.65651 0.514569 1.15789 0 1.15789 0C1.15789 0 5.82549 1.85079 5.50139 2.17447Z" transform="translate(173.7756 132.8915)" id="Shape" fill="#000000" fill-opacity="0.1" stroke="none" />
    <path d="M5.87812 1.52987C4.36011 1.93931 1.57618 2.06381 0.171745 2.10254L0 0L5.54017 0L5.87812 1.52987Z" transform="translate(230.615 140.5989)" id="Shape" fill="#000000" fill-opacity="0.1" stroke="none" />
    <path d="M22.7181 0C22.7181 0 19.2555 3.41109 19.2555 3.96439C19.2555 4.51769 19.5796 4.99629 19.0726 4.96586C18.5657 4.93543 18.5491 5.53299 18.5796 5.90094C18.61 6.26888 17.9646 5.71558 18.0089 6.40721C18.0532 7.09883 13.2998 17.9352 13.2998 17.9352C13.2998 17.9352 11.1308 23.2386 10.2998 24.1128C9.46875 24.987 8.31363 28.8629 8.40781 30.2931C8.50199 31.7234 8.54632 32.1356 8.17512 32.1356C7.80393 32.1356 7.06709 33.4276 7.06709 33.4276L3.42166 44.7702C3.42166 44.7702 2.35795 48.2754 2.03662 48.2284C1.71529 48.1813 0.928587 54.2676 0.928587 54.2676C0.928587 54.2676 0.141883 56.0658 0.00337913 56.0658C-0.135125 56.0658 4.02 59.6623 5.86765 58.9264C7.71529 58.1905 7.89812 56.1599 7.89812 56.1599L10.6682 50.3503C10.6682 50.3503 11.8704 46.9834 12.2388 46.3831C12.6073 45.7828 15.4715 39.7435 15.4715 39.7435C15.4715 39.7435 15.9784 37.1624 16.4411 36.3794C16.9037 35.5965 16.948 33.8896 16.948 33.8896C16.948 33.8896 17.9175 31.3057 18.9341 30.2931C19.667 29.4952 20.3021 28.6129 20.8261 27.665C20.8261 27.665 25.0283 20.9783 27.8898 19.0888C27.8898 19.0888 34.7679 10.604 35.1834 9.86533C35.5989 9.12667 36.8926 7.19289 38.4632 8.94409C40.0338 10.6953 41.6931 12.9555 41.6931 12.9555L44.5103 20.7017L47.6488 30.6141C47.6488 30.6141 49.128 33.0126 49.0338 33.5189C48.9397 34.0252 51.4355 38.5456 51.4355 38.5456C51.4355 38.5456 52.405 40.2055 52.2194 41.0355C52.0338 41.8654 52.912 42.6954 52.912 42.6954L53.189 46.0622C53.189 46.0622 54.2056 49.382 53.9286 49.8882C53.6516 50.3945 54.8981 53.576 54.8981 53.576C54.8981 53.576 54.8981 56.3895 55.3607 57.3108C55.8233 58.232 56.3746 61.9225 56.3302 62.1992C56.2859 62.4758 56.3302 65.0127 56.3302 65.0127C56.3302 65.0127 63.297 64.9657 63.8981 63.9061C64.4992 62.8465 63.3912 61.5546 63.3912 61.5546L63.1585 55.9745L62.5602 42.4657C62.5602 42.4657 61.3136 37.9453 61.128 36.8857C60.9424 35.8261 59.2361 33.6129 59.2361 33.6129C59.2361 33.6129 59.6045 32.5063 59.1419 31.7207C58.6793 30.935 57.6654 27.25 57.6654 27.25L56.7873 17.0582L56.3358 5.94797L22.7181 0Z" transform="translate(173.595 77.4315)" id="Shape" fill="#DCE6F2" stroke="none" />
    <path d="M35.7341 8.57614C35.4571 8.34376 24.0997 8.25246 23.9612 8.25246C23.8227 8.25246 19.5291 6.54553 19.5291 6.54553C19.5291 6.54553 9.9723 4.9797 8.49584 5.67132C7.01939 6.36294 2.44598 4.37937 2.44598 4.37937L2.44598 3.50239C2.44598 3.50239 0 2.67244 0 2.48985C0 2.30726 0.462604 0.459239 0.462604 0.459239L0.739612 0.362411L1.79778 0L34.2548 5.20931C34.2548 5.20931 34.6842 6.08906 35.0859 6.94944C35.4875 7.80982 35.8753 8.69234 35.7341 8.57614Z" transform="translate(195.482 76.00122)" id="Shape" fill="#000000" fill-opacity="0.1" stroke="none" />
    <path d="M35.7341 8.57614C35.4571 8.34376 24.0997 8.25246 23.9612 8.25246C23.8227 8.25246 19.5291 6.54553 19.5291 6.54553C19.5291 6.54553 9.9723 4.9797 8.49584 5.67132C7.01939 6.36294 2.44598 4.37937 2.44598 4.37937L2.44598 3.50239C2.44598 3.50239 0 2.67244 0 2.48985C0 2.30726 0.462604 0.459239 0.462604 0.459239L0.739612 0.362411L1.79778 0L34.2548 5.20931C34.2548 5.20931 34.6842 6.08906 35.0859 6.94944C35.4875 7.80982 35.8753 8.69234 35.7341 8.57614Z" transform="translate(195.482 75.72457)" id="Shape" fill="#F1FAFF" stroke="none" />
    <path d="M7.12922 3.73477L6.85221 5.03779C6.85221 5.03779 6.7608 5.16505 6.61953 5.36977L1.70263 6.55937C1.70263 6.55937 -0.88186 0.658426 0.317586 0.520102C0.740685 0.431701 1.14011 0.254409 1.48933 0C1.23725 1.84802 2.67216 3.79287 2.67216 3.79287C4.69709 5.31444 7.12922 3.73477 7.12922 3.73477Z" transform="translate(171.1644 134.8225)" id="Shape" fill="#000000" fill-opacity="0.1" stroke="none" />
    <path d="M21.0083 7.0635L20.7313 8.36652C20.7313 8.36652 18.8393 10.9947 18.9307 11.6863C18.9355 11.8517 18.8701 12.0115 18.7507 12.1262L18.7507 12.1262C18.2576 12.7127 16.9446 13.2964 16.9446 13.2964C16.9446 13.2964 12.6066 11.0832 11.5429 9.60868C10.4792 8.13413 5.03321 6.56553 5.03321 6.56553C5.03321 6.56553 -0.13577 3.01335 0.00273454 1.12383C0.0636764 0.293879 0.961183 -0.0159691 2.06922 0.000629865C3.45426 0.0172288 5.18002 0.534564 6.00273 1.12383C7.48196 2.1834 10.4349 1.81545 11.867 1.67713C13.2991 1.5388 15.4044 3.01058 15.4044 3.01058C14.9252 4.94713 16.5291 7.11883 16.5291 7.11883C18.5761 8.64317 21.0083 7.0635 21.0083 7.0635Z" transform="translate(157.2854 131.7732)" id="Shape" fill="#575988" stroke="none" />
    <path d="M18.7507 12.1262L18.7507 12.1262C18.2576 12.7127 16.9446 13.2964 16.9446 13.2964C16.9446 13.2964 12.6066 11.0832 11.5429 9.60868C10.4792 8.13413 5.03321 6.56553 5.03321 6.56553C5.03321 6.56553 -0.13577 3.01335 0.00273454 1.12383C0.0636764 0.293879 0.961183 -0.0159691 2.06922 0.000629865C2.90024 1.38388 4.12739 3.30659 5.03321 3.84329C6.51243 4.72027 9.42102 6.38017 9.42102 6.38017C9.42102 6.38017 14.036 9.285 14.3601 9.60868C14.626 9.87703 17.2991 11.6421 18.7507 12.1262Z" transform="translate(157.2992 131.7704)" id="Shape" fill="#F1FAFF" stroke="none" />
    <path d="M6.39335 1.9052L0.0609418 1.9052L0 1.16101C0.797784 0.411289 2.50693 0.0544105 2.50693 0.0544105C3.69252 -0.308001 5.87812 1.24677 6.31025 1.56768L6.39335 1.9052Z" transform="translate(231.0166 144.318)" id="Shape" fill="#000000" fill-opacity="0.1" stroke="none" />
    <path d="M9.72299 7.21422C9.70637 8.14653 9.60388 9.18397 9.60388 9.18397C8.13423 9.30251 6.65507 9.19332 5.21884 8.86029C3.92311 8.59342 2.59204 8.54294 1.27978 8.7109C1.03081 8.74032 0.780763 8.66538 0.589159 8.50391C0.397554 8.34243 0.281528 8.10887 0.268698 7.85882C0.249307 7.50471 0.224377 7.07866 0.202216 6.61943C0.108033 4.8959 0 2.69377 0 1.94405C0 0.654858 2.90859 0.0545277 2.90859 0.0545277C4.22715 -0.349381 6.7867 1.62313 6.7867 1.62313C6.7867 1.62313 9.32687 5.31087 9.60388 5.86417C9.71191 6.07719 9.73407 6.62496 9.72299 7.21422Z" transform="translate(230.615 144.6029)" id="Shape" fill="#575988" stroke="none" />
    <path d="M9.52078 0.791264C9.50416 1.72357 9.40166 2.76101 9.40166 2.76101C7.93201 2.87955 6.45285 2.77036 5.01662 2.43733C3.72089 2.17046 2.38983 2.11998 1.07756 2.28794C0.828593 2.31736 0.578547 2.24242 0.386942 2.08095C0.195338 1.91947 0.0793118 1.68591 0.066482 1.43586C0.0470914 1.08175 0.0221607 0.655705 0 0.196467C1.06371 0.0360099 2.63158 -0.118914 3.72299 0.132837C4.99169 0.426086 7.90582 0.672304 9.52078 0.791264Z" transform="translate(230.8172 151.0258)" id="Shape" fill="#F1FAFF" stroke="none" />
    <path d="M0.430902 0C0.430902 0 -0.538627 1.6599 0.430902 2.42069C1.40043 3.18147 0.430902 0 0.430902 0Z" transform="translate(176.8378 124.1161)" id="Shape" fill="#000000" fill-opacity="0.1" stroke="none" />
    <path d="M0 0C0.277008 0.5533 1.01385 1.38325 0.886427 2.35152C0.759003 3.3198 0 0 0 0Z" transform="translate(229.3463 130.5482)" id="Shape" fill="#000000" fill-opacity="0.1" stroke="none" />
    <path d="M18.2263 14.2811C18.2263 14.2811 13.9964 13.8523 9.61135 13.2713L9.43129 13.2464C4.33988 12.5686 -0.884496 11.6916 0.126584 11.0526C0.578108 10.7759 0.957609 10.0732 1.27063 9.18797C1.46556 8.62099 1.62924 8.04377 1.76093 7.45891L1.76093 7.45891C1.78309 7.36761 1.80248 7.27355 1.82465 7.18226C2.01578 6.31081 2.16814 5.40063 2.28725 4.57622C2.52271 2.89695 2.61966 1.55797 2.61966 1.55797C2.61966 1.55797 13.4701 -2.54751 12.1321 2.57051C11.9293 3.39228 11.9161 4.24932 12.0933 5.07695C12.2528 5.87188 12.5125 6.64342 12.8662 7.37315C14.5947 11.0581 18.2263 14.2811 18.2263 14.2811Z" transform="translate(210.2668 15.10465)" id="Shape" fill="#FFAAB0" stroke="none" />
    <path d="M9.84488 2.57051C9.64207 3.39228 9.62881 4.24932 9.80609 5.07695C6.89018 7.43914 2.65947 7.22311 0 4.57622C0.235457 2.89695 0.33241 1.55797 0.33241 1.55797C0.33241 1.55797 11.1828 -2.54751 9.84488 2.57051Z" transform="translate(212.554 15.10188)" id="Shape" fill="#000000" fill-opacity="0.1" stroke="none" />
    <path d="M14.6814 7.33122C14.6844 9.95041 13.288 12.3722 11.0183 13.6844C8.74854 14.9966 5.95027 14.9997 3.67756 13.6927C1.40485 12.3857 0.00296897 9.96701 0 7.34782L0 7.33122C2.41647e-07 3.2823 3.28655 0 7.34072 0C11.3949 0 14.6814 3.2823 14.6814 7.33122L14.6814 7.33122Z" transform="translate(210.3934 6.877513)" id="Shape" fill="#FFAAB0" stroke="none" />
    <path d="M9.7083 5.78751C9.6874 5.89134 9.65487 5.99249 9.61135 6.08906L9.43129 6.06416C4.33988 5.38637 -0.884496 4.50939 0.126584 3.87033C0.578108 3.59368 0.957609 2.89099 1.27063 2.00571C1.46556 1.43873 1.62924 0.861513 1.76093 0.27665L1.76093 0.27665C1.78309 0.185355 1.80248 0.0912944 1.82465 0L2.03794 0C2.05456 0.116193 2.59196 3.66008 7.35373 4.26594L7.5144 4.2853C9.37312 4.49279 9.84681 5.10142 9.7083 5.78751Z" transform="translate(210.2668 22.2869)" id="Shape" fill="#000000" fill-opacity="0.1" stroke="none" />
    <path d="M11.0582 5.79028C10.8255 6.93838 8.86427 8.29949 8.86427 8.29949L3.41551 7.28419C3.41551 7.28419 0 4.24104 0 4.14975C0 4.05845 2.03047 0 2.03047 0L3.38781 0C3.40443 0.116193 3.94183 3.66008 8.7036 4.26594L8.86427 4.28531C10.723 4.49556 11.1967 5.10419 11.0582 5.79028Z" transform="translate(208.6399 22.56079)" id="Shape" fill="#F1FAFF" stroke="none" />
    <path d="M19.8532 6.91071C19.8532 6.91071 15.5069 6.47084 11.0582 5.87604C10.8255 7.02414 8.86427 8.38525 8.86427 8.38525L3.41551 7.36995C3.41551 7.36995 0 4.3268 0 4.23551C0 4.14421 2.03047 0.0857614 2.03047 0.0857614L2.09972 0.0857614C2.27847 0.699249 2.54732 1.28287 2.89751 1.81759C3.75346 3.12338 5.39058 4.55366 8.43767 4.37383L8.69252 4.35447C13.2659 3.97546 14.2936 0.81335 14.482 0C16.2216 3.68774 19.8532 6.91071 19.8532 6.91071Z" transform="translate(208.6399 22.47503)" id="Shape" fill="#000000" fill-opacity="0.1" stroke="none" />
    <path d="M34.6316 6.94944L34.5402 7.28419C33.4321 6.45424 25.3546 5.90094 25.3546 5.90094C25.3546 5.90094 23.2299 5.65195 21.1994 5.32827C19.7258 5.09312 18.3019 4.81647 17.7784 4.56472C17.6566 4.51047 17.5317 4.46336 17.4044 4.42363C15.5651 3.8482 9.92521 3.18147 9.92521 3.18147C9.92521 3.18147 7.15512 4.4264 5.67867 3.8731C4.20222 3.3198 0 0.735888 0 0.735888C0 0.735888 0.0914127 0.597563 0.277008 0.362411L1.33518 0L33.7922 5.20931C33.7922 5.20931 34.2327 6.08906 34.6316 6.94944Z" transform="translate(195.9363 75.72457)" id="Shape" fill="#000000" fill-opacity="0.1" stroke="none" />
    <path d="M37.7258 45.924C38.3435 49.5924 39.1496 54.9566 38.7313 55.734C38.0831 56.9319 37.1136 60.5754 37.1136 60.5754C36.0056 59.7454 27.928 59.1921 27.928 59.1921C27.928 59.1921 25.8034 58.9431 23.7729 58.6194C22.2992 58.3843 20.8754 58.1076 20.3518 57.8559C20.23 57.8016 20.1052 57.7545 19.9779 57.7148C18.1386 57.1394 12.4987 56.4726 12.4987 56.4726C12.4987 56.4726 9.72858 57.7176 8.25212 57.1643C6.77567 56.611 2.57346 54.0271 2.57346 54.0271C3.17846 53.1987 3.87542 52.4414 4.65102 51.7696C6.08038 50.4776 8.71196 39.3646 8.64548 39.2263C8.57899 39.088 7.92803 35.5385 8.11362 33.4637C8.29922 31.3888 7.5596 21.2441 7.5596 21.2441C7.5596 21.2441 0.133012 18.3724 0.00281836 13.946C-0.127376 9.51964 4.29645 6.9385 4.29645 6.9385C4.29645 6.9385 9.4211 2.92708 9.83661 2.69469C10.2521 2.4623 13.0222 1.86474 15.2854 0.619817C17.5485 -0.625107 17.3158 0.390198 17.3158 0.390198C17.3158 0.390198 18.241 5.2786 23.7341 4.95492C29.2272 4.63124 29.8283 0.390198 29.8283 0.390198C30.4183 -1.08435 35.1496 3.29502 35.1496 3.29502C35.1496 3.29502 36.3491 5.78487 40.1358 7.81271C42.9059 9.29555 43.6205 13.1133 43.8089 15.0637C43.8782 15.7858 43.8754 16.2505 43.8754 16.2505L32.748 24.2291L37.1219 42.441C37.1219 42.441 37.3989 43.9266 37.7258 45.924Z" transform="translate(193.3628 22.17059)" id="Shape" fill="#575988" stroke="none" />
    <path d="M0 4.3164C0 4.3164 3.6482 10.5853 7.43213 8.83409C8.28477 8.44695 8.99269 7.8 9.45429 6.98607C10.9474 4.4077 9.45429 1.11833 6.56233 0.346479C5.49584 0.0698293 4.34626 -0.10446 3.41551 0.0698293C0.783934 0.534601 0 4.3164 0 4.3164Z" transform="translate(203.5623 73.25342)" id="Shape" fill="#FFAAB0" stroke="none" />
    <path d="M0 4.3164C0 4.3164 3.6482 10.5853 7.43213 8.83409C8.28477 8.44695 8.99269 7.8 9.45429 6.98607C10.9474 4.4077 9.45429 1.11833 6.56233 0.346479C5.49584 0.0698293 4.34626 -0.10446 3.41551 0.0698293C0.783934 0.534601 0 4.3164 0 4.3164Z" transform="translate(203.5623 73.25342)" id="Shape" fill="#000000" fill-opacity="0.1" stroke="none" />
    <path d="M0 0C0 0 2.87812 1.93655 2.93906 4.9797L0 0Z" transform="translate(198.2078 31.78429)" id="Shape" fill="#000000" fill-opacity="0.1" stroke="none" />
    <path d="M0.233054 0C0.233054 0.185355 -0.597971 13.0025 0.878483 17.3819C2.35494 21.7613 0.233054 0 0.233054 0Z" transform="translate(202.4982 33.25883)" id="Shape" fill="#000000" fill-opacity="0.1" stroke="none" />
    <path d="M14.6759 7.33398C14.6792 8.75469 14.2661 10.1453 13.4875 11.3343C13.4875 11.2403 13.4875 11.149 13.4875 11.0577C13.4404 10.2886 13.0332 9.59421 12.6371 8.93025C12.3676 8.4023 11.9901 7.93672 11.5291 7.5636C11.3946 7.48549 11.2691 7.39271 11.1551 7.28695C10.9003 7.0103 10.928 6.57043 10.8781 6.18036C10.7269 5.1345 9.92632 4.30053 8.88643 4.10548C8.67595 4.05297 8.45326 4.08474 8.26593 4.19401C8.07756 4.3268 7.98892 4.57302 7.83103 4.72518C7.58172 4.94926 7.19945 4.9216 6.86981 4.85797C6.14404 4.71411 5.38781 4.45129 4.68421 4.68368C3.47645 5.08482 3.02216 6.75302 1.78393 7.06287C1.41718 7.11756 1.0467 7.14346 0.6759 7.14033C0.437481 7.1559 0.206015 7.22696 0 7.34782L0 7.33122C0 3.2823 3.28655 0 7.34072 0C11.3949 0 14.6814 3.2823 14.6814 7.33122L14.6759 7.33398Z" transform="translate(210.3989 6.874746)" id="Shape" fill="#000000" fill-opacity="0.1" stroke="none" />
    <path d="M0.605519 5.28099C0.835436 4.97391 1.20386 4.78855 1.41161 4.46487C1.7274 3.96967 1.57228 3.31678 1.7274 2.74965C1.91577 2.05525 2.53627 1.57942 3.11244 1.15614C3.94347 0.55858 4.84375 -0.063882 5.85483 0.00528042C6.54735 0.0550774 7.17616 0.431321 7.86314 0.541981C8.93516 0.71627 10.01 0.2349 11.0958 0.265331C12.1973 0.320529 13.2034 0.906462 13.7939 1.8367C14.2232 2.52279 14.4504 3.41637 15.1789 3.77325C15.4559 3.91434 15.7662 3.95861 16.0377 4.0997C16.5475 4.40994 16.8764 4.94649 16.9213 5.54104C16.9595 6.12576 16.9185 6.71295 16.7994 7.2867C16.7451 7.57573 16.732 7.87099 16.7606 8.16368C16.8105 8.52609 16.9823 8.86361 17.0183 9.22878C17.1014 10.0587 16.4642 10.7863 16.0016 11.4973C15.5911 12.1351 15.2992 12.8418 15.1401 13.5833C15.0949 13.932 14.9959 14.2717 14.8465 14.5903C14.6884 14.9137 14.3468 15.1063 13.9878 15.0744C13.9352 14.5737 14.0598 14.0674 14.0266 13.5639C13.9795 12.7948 13.5723 12.1004 13.1762 11.4392C12.9074 10.91 12.5298 10.4434 12.0681 10.0698C11.9339 9.99255 11.8093 9.89968 11.6969 9.79315C11.4393 9.5165 11.467 9.07939 11.4199 8.68655C11.2676 7.64177 10.4673 6.80914 9.42823 6.61444C9.21812 6.5611 8.99545 6.59188 8.80774 6.7002C8.61937 6.833 8.53073 7.07921 8.37283 7.23137C8.12352 7.45546 7.74125 7.43056 7.41161 7.36416C6.68585 7.22307 5.92962 6.95749 5.22602 7.18987C4.01826 7.59102 3.56397 9.25921 2.32574 9.56906C1.95916 9.62526 1.58856 9.65117 1.21771 9.64652C0.838442 9.64744 0.483191 9.83205 0.264799 10.1417C-0.106392 9.75442 -0.0315996 9.12366 0.151226 8.62015C0.364522 8.03089 0.558428 7.61315 0.453165 6.99345C0.347902 6.37376 0.209398 5.80939 0.605519 5.28099Z" transform="translate(209.8598 4.061471)" id="Shape" fill="#794F6A" stroke="none" />
    <path d="M1.64931 0C1.64931 0 -0.982273 1.38325 0.402768 1.6599C1.78781 1.93655 1.64931 0 1.64931 0Z" transform="translate(181.8521 109.9378)" id="Shape" fill="#000000" fill-opacity="0.1" stroke="none" />
    <path d="M0 1.13962C0 1.13962 1.45429 -0.796932 3.04709 0.37883C4.63989 1.55459 0 1.13962 0 1.13962Z" transform="translate(226.8532 112.118)" id="Shape" fill="#000000" fill-opacity="0.1" stroke="none" />
    <path d="M0 0.4C0 0.4 1.8144 -0.5 2.92244 0.4L0 0.4Z" transform="translate(230.2327 114.2259)" id="Shape" fill="#000000" fill-opacity="0.1" stroke="none" />
    <path d="M0 0C0 0 3.87812 3.73477 5.12465 3.8731C6.37119 4.01142 0 0 0 0Z" transform="translate(194.374 83.10281)" id="Shape" fill="#000000" fill-opacity="0.1" stroke="none" />
    <path d="M2.19421 0.370301L1.1859 2.48944L0.676208 7.46913L0.307787 16.7369C0.307787 16.7369 -0.384734 24.6214 0.307787 25.728C1.00031 26.8346 2.19975 33.3829 1.96984 34.2129C1.73992 35.0428 5.01693 42.789 5.61804 43.251C6.21914 43.713 8.34103 43.8043 9.54047 43.5719L11.7344 45.6551L17.9449 39.9312L14.1111 37.0264C14.1111 37.0264 14.9892 35.5491 12.5432 33.9362C12.5432 33.9362 11.4352 32.091 11.3881 31.1227C11.3306 29.1474 10.9882 27.1907 10.3715 25.313C9.49615 22.7319 8.98646 8.39314 8.98646 8.39314C8.98646 8.39314 6.90336 -2.07528 2.19421 0.370301Z" transform="translate(192.7338 33.62719)" id="Shape" fill="#000000" fill-opacity="0.1" stroke="none" />
    <path d="M2.19421 0.370301L1.1859 2.48944L0.676208 7.46913L0.307787 16.7369C0.307787 16.7369 -0.384734 24.6214 0.307787 25.728C1.00031 26.8346 2.19975 33.3829 1.96984 34.2129C1.73992 35.0428 5.01693 42.789 5.61804 43.251C6.21914 43.713 8.34103 43.8043 9.54047 43.5719L11.7344 45.6551L17.9449 39.9312L14.1111 37.0264C14.1111 37.0264 14.9892 35.5491 12.5432 33.9362C12.5432 33.9362 11.4352 32.091 11.3881 31.1227C11.3306 29.1474 10.9882 27.1907 10.3715 25.313C9.49615 22.7319 8.98646 8.39314 8.98646 8.39314C8.98646 8.39314 6.90336 -2.07528 2.19421 0.370301Z" transform="translate(192.1797 33.62719)" id="Shape" fill="#575988" stroke="none" />
    <path d="M4.24867 0C3.97166 0.138325 -1.6156 5.30338 0.461965 5.4417C2.53953 5.58003 4.24867 0 4.24867 0Z" transform="translate(199.7763 68.67)" id="Shape" fill="#000000" fill-opacity="0.1" stroke="none" />
    <path d="M7.58631 0C7.58631 0 -0.399843 0.829949 0.0156694 4.05845C0.431182 7.28695 6.10985 10.3965 7.91041 9.41716C9.71096 8.43782 11.2345 7.50274 11.2345 7.50274L7.58631 0Z" transform="translate(203.5467 74.89462)" id="Shape" fill="#FFAAB0" stroke="none" />
    <path d="M26.3222 2.47305L27.4773 4.68625C27.4773 4.68625 28.6768 14.1366 27.4773 17.7801C26.2779 21.4236 23.3693 29.8143 23.3693 29.8143C23.3693 29.8143 19.8596 35.9477 19.7682 36.2243C19.6767 36.501 13.0258 46.0896 11.8263 46.5987C10.6269 47.1077 8.36373 46.8394 8.22522 46.2805C8.08672 45.7217 5.03963 48.6597 5.03963 48.6597C5.03963 48.6597 -0.832947 41.572 0.100571 40.8333C1.03409 40.0946 3.86234 39.9121 3.86234 39.9121C3.86234 39.9121 4.0701 40.6037 4.30002 39.1734C4.52993 37.7431 5.59365 37.0072 6.37758 37.0985C7.16151 37.1898 6.84018 36.3626 6.97869 35.4857C7.11719 34.6087 9.28617 33.0428 9.28617 33.0428C9.28617 33.0428 10.3499 31.3359 10.3499 30.3206C10.3499 29.3053 12.5659 28.4311 12.7488 28.4311C12.9316 28.4311 12.8873 28.0161 12.8873 26.5416C12.8873 25.067 13.9953 22.4361 13.9953 22.4361L14.6795 14.1366L15.8817 5.69878C15.8817 5.69878 19.1671 -4.58152 26.3222 2.47305Z" transform="translate(209.1875 33.73764)" id="Shape" fill="#000000" fill-opacity="0.1" stroke="none" />
    <path d="M20.1857 30.8762C20.1857 30.8762 20.4627 32.3618 20.7979 34.3454C20.2439 35.3386 19.8034 36.1298 19.7702 36.2239C19.6788 36.5005 13.0306 46.092 11.8312 46.5982C10.6317 47.1045 8.36855 46.8389 8.23004 46.2829C8.1691 46.0339 7.53475 46.4737 6.845 47.0409C5.98627 47.7491 5.04168 48.6593 5.04168 48.6593C5.04168 48.6593 4.11093 47.5361 3.04999 46.1362C1.44334 44.0226 -0.459709 41.281 0.0998475 40.8356C1.03337 40.097 3.86439 39.9144 3.86439 39.9144C3.86439 39.9144 4.07215 40.606 4.30206 39.1757C4.53198 37.7454 5.59569 37.0096 6.37963 37.1008C7.16356 37.1921 6.84223 36.3622 6.98073 35.488C7.11924 34.6138 9.28821 33.0424 9.28821 33.0424C9.28821 33.0424 10.3492 31.3382 10.3492 30.3229C10.3492 29.3076 12.5652 28.4334 12.7508 28.4334C12.9364 28.4334 12.8893 28.0184 12.8893 26.5411C12.8893 25.0638 13.9974 22.4384 13.9974 22.4384L14.6816 14.1389L15.881 5.7011C15.881 5.7011 19.1608 -4.58197 26.3159 2.4726L26.8505 3.49897C26.9198 4.22103 26.917 4.6858 26.917 4.6858L15.7896 12.6644L20.1857 30.8762Z" transform="translate(210.299 33.73532)" id="Shape" fill="#000000" fill-opacity="0.1" stroke="none" />
    <path d="M26.3222 2.47305L27.4773 4.68625C27.4773 4.68625 28.6768 14.1366 27.4773 17.7801C26.2779 21.4236 23.3693 29.8143 23.3693 29.8143C23.3693 29.8143 19.8596 35.9477 19.7682 36.2243C19.6767 36.501 13.0258 46.0896 11.8263 46.5987C10.6269 47.1077 8.36373 46.8394 8.22522 46.2805C8.08672 45.7217 5.03963 48.6597 5.03963 48.6597C5.03963 48.6597 -0.832947 41.572 0.100571 40.8333C1.03409 40.0946 3.86234 39.9121 3.86234 39.9121C3.86234 39.9121 4.0701 40.6037 4.30002 39.1734C4.52993 37.7431 5.59365 37.0072 6.37758 37.0985C7.16151 37.1898 6.84018 36.3626 6.97869 35.4857C7.11719 34.6087 9.28617 33.0428 9.28617 33.0428C9.28617 33.0428 10.3499 31.3359 10.3499 30.3206C10.3499 29.3053 12.5659 28.4311 12.7488 28.4311C12.9316 28.4311 12.8873 28.0161 12.8873 26.5416C12.8873 25.067 13.9953 22.4361 13.9953 22.4361L14.6795 14.1366L15.8817 5.69878C15.8817 5.69878 19.1671 -4.58152 26.3222 2.47305Z" transform="translate(209.7415 33.73764)" id="Shape" fill="#575988" stroke="none" />
    <path d="M0 0C0 0 0.277008 0.622462 1.52355 0.849315C2.77008 1.07617 0 0 0 0Z" transform="translate(215.4737 73.26238)" id="Shape" fill="#000000" fill-opacity="0.1" stroke="none" />
    <path d="M3.435 0C3.39067 0.138325 -0.72013 4.77774 0.110895 5.9867C0.94192 7.19566 3.435 0 3.435 0Z" transform="translate(226.95 36.25495)" id="Shape" fill="#000000" fill-opacity="0.1" stroke="none" />
    <path d="M0 0C0 0 2.35457 2.30726 1.89197 3.41386C1.42936 4.52046 0 0 0 0Z" transform="translate(225.723 57.55698)" id="Shape" fill="#000000" fill-opacity="0.1" stroke="none" />
    <path d="M0 0C0.138504 0.229619 5.21884 0.829949 5.49584 2.7665C5.77285 4.70305 0 0 0 0Z" transform="translate(226.0914 53.17762)" id="Shape" fill="#000000" fill-opacity="0.1" stroke="none" />
    <g id="Group" transform="translate(209.6953 9.682741)" opacity="0.1">
      <path d="M0.0198564 1.92272C0.0198564 1.81759 0.0558564 1.7097 0.0798564 1.6018C0.229224 1.07441 0.293618 0.5372 0.271856 0C0.239856 0.351345 0.151856 0.70269 0.0798564 1.0485C0.000206121 1.33648 -0.019995 1.63081 0.0198564 1.92272L0.0198564 1.92272Z" transform="translate(16.89761 0.1023604)" id="Shape" fill="#000000" stroke="none" />
      <path d="M0.143913 1.20619C0.191578 1.00187 0.191578 0.793586 0.143913 0.589264C0.095913 0.392843 0.043913 0.196421 0.015913 0C-0.0267257 0.383141 0.0164498 0.768538 0.143913 1.14256L0.143913 1.20619Z" transform="translate(0.5208359 0.2766497)" id="Shape" fill="#000000" stroke="none" />
      <path d="M3.01974 0C2.90063 0.658426 2.40478 1.24769 2.02528 1.83142C1.61308 2.46741 1.32109 3.17347 1.16378 3.91459C1.11634 4.26292 1.01739 4.60229 0.870156 4.9216C0.713227 5.24623 0.370817 5.43928 0.0114302 5.40574C0.0126505 5.39655 0.0126505 5.38725 0.0114302 5.37807C-0.00381008 5.57143 -0.00381008 5.76568 0.0114302 5.95903C0.370817 5.99258 0.713227 5.79953 0.870156 5.4749C1.01739 5.15559 1.11634 4.81622 1.16378 4.46789C1.32109 3.72677 1.61308 3.02071 2.02528 2.38472C2.48511 1.67373 3.13331 0.957208 3.03913 0.113426C3.05021 0.0746954 3.02528 0.038731 3.01974 0Z" transform="translate(14.13815 3.532817)" id="Shape" fill="#000000" stroke="none" />
      <path d="M14.0386 6.99162C13.9915 6.22254 13.5843 5.52538 13.1882 4.86419C12.9203 4.33044 12.5428 3.8591 12.0802 3.48094C11.9456 3.40292 11.8201 3.31013 11.7062 3.20429C11.4514 2.92764 11.4791 2.48776 11.4292 2.09769C11.2768 1.05291 10.4765 0.220284 9.4375 0.0255817C9.22739 -0.0277587 9.00472 0.00301726 8.817 0.111343C8.62864 0.244135 8.54 0.490353 8.3821 0.645277C8.09828 0.832412 7.74491 0.88123 7.42088 0.778069C6.69512 0.634211 5.93889 0.368627 5.23529 0.60378C4.02753 1.00216 3.57324 2.67035 2.33224 2.9802C1.96559 3.03606 1.59509 3.06288 1.22421 3.06043C0.845739 3.05879 0.490593 3.24285 0.274067 3.55287C0.147753 3.41871 0.0639152 3.25029 0.03307 3.06873C-0.0547348 3.43315 0.0345697 3.81758 0.274067 4.10617C0.490593 3.79615 0.845739 3.61209 1.22421 3.61373C1.59509 3.61618 1.96559 3.58936 2.33224 3.5335C3.5677 3.22365 4.02753 1.55545 5.23529 1.15708C5.93889 0.921927 6.69512 1.18751 7.42088 1.33137C7.74491 1.43453 8.09828 1.38571 8.3821 1.19858C8.55385 1.04365 8.62864 0.797434 8.817 0.664643C9.00472 0.556317 9.22739 0.525541 9.4375 0.578881C10.4765 0.773583 11.2768 1.60621 11.4292 2.65099C11.4763 3.03276 11.4486 3.46157 11.7062 3.75759C11.8201 3.86343 11.9456 3.95622 12.0802 4.03424C12.5428 4.4124 12.9203 4.88374 13.1882 5.41749C13.5732 6.06208 13.9638 6.7371 14.0192 7.48129C14.0368 7.31869 14.0432 7.1551 14.0386 6.99162L14.0386 6.99162Z" transform="translate(0.1497555 0.4391899)" id="Shape" fill="#000000" stroke="none" />
    </g>
    <path d="M7.86537e-05 0.462142L7.86537e-05 29.4938C-0.00144064 29.6172 0.0471927 29.7361 0.134881 29.8231C0.22257 29.9102 0.341832 29.958 0.465453 29.9558C8.47099 29.7068 15.1469 23.0976 15.1469 14.978C15.1469 6.85828 8.47653 0.246355 0.465453 0.000137076C0.341603 -0.00290204 0.221882 0.0447048 0.13402 0.131931C0.0461574 0.219158 -0.00222495 0.338437 7.86537e-05 0.462142Z" transform="translate(132.8393 40.43499)" id="Shape" fill="#61BEEC" stroke="none" />
    <path d="M0.000483929 40.109L0.000483929 16.082C-0.0280358 12.2395 1.20473 8.49349 3.51018 5.41712C5.69023 2.55656 9.08359 -0.0328822 14.2138 0.000315769C14.3534 -0.000419885 14.4875 0.054255 14.5868 0.152312C14.686 0.250369 14.7421 0.383776 14.7429 0.523184L14.7429 25.2557C14.7429 25.2557 15.5739 38.7728 0.294113 40.3718C0.220158 40.3763 0.14747 40.3511 0.0922929 40.3017C0.0371161 40.2523 0.00404991 40.1829 0.000483929 40.109Z" transform="translate(112.8472 40.43481)" id="Shape" fill="#4064AC" stroke="none" />
    <path d="M8.72576 17.4289C13.5449 17.4289 17.4515 13.5273 17.4515 8.71447C17.4515 3.9016 13.5449 0 8.72576 0C3.90666 0 0 3.9016 0 8.71447C0 13.5273 3.90666 17.4289 8.72576 17.4289Z" transform="translate(41.13297 20.29502)" id="Oval" fill="#4E53F7" fill-opacity="0.1" stroke="none" />
    <path d="M5.40166 10.7893C8.38492 10.7893 10.8033 8.37406 10.8033 5.39467C10.8033 2.41528 8.38492 0 5.40166 0C2.41841 0 0 2.41528 0 5.39467C0 8.37406 2.41841 10.7893 5.40166 10.7893Z" transform="translate(26.17451 2.866091)" id="Oval" fill="#4E53F7" fill-opacity="0.1" stroke="none" />
    <path d="M3.3241 6.63959C5.15995 6.63959 6.6482 5.15327 6.6482 3.3198C6.6482 1.48632 5.15995 0 3.3241 0C1.48825 0 0 1.48632 0 3.3198C0 5.15327 1.48825 6.63959 3.3241 6.63959Z" transform="translate(0 16.97523)" id="Oval" fill="#4E53F7" fill-opacity="0.1" stroke="none" />
    <path d="M17.2841 2.05293C17.0183 2.41666 16.8056 2.81626 16.6525 3.23976C16.6137 3.34212 16.5749 3.46107 16.5361 3.5745C16.4662 3.54142 16.3928 3.51636 16.3173 3.49981C15.9945 3.41767 15.6605 3.3887 15.3284 3.41404C15.3284 3.28679 15.345 3.13739 15.3478 3.01014C15.3893 1.55219 15.2176 -0.481184 13.8242 0.379197C12.489 1.20915 13.4419 2.59239 14.3034 3.48044L14.5251 3.69623C13.7383 4.24953 13.5888 5.55808 13.4586 6.91643C13.3284 8.27478 12.1732 9.76316 11.4059 10.6069C11.3284 10.6927 11.2591 10.7702 11.1899 10.8421C10.5633 10.3404 9.75111 10.1319 8.95995 10.2694C8.92948 10.1505 8.89624 10.026 8.85746 9.89318C8.23973 7.64402 6.95164 3.77092 5.30621 2.94097L5.52228 2.66432C6.22034 1.75138 7.00704 0.395796 5.84638 0.0499835C4.68572 -0.295829 4.58045 1.22574 4.64416 2.36554C4.64416 2.50663 4.66632 2.64219 4.6774 2.76945C4.2085 2.79113 3.76941 3.00538 3.46411 3.36148L3.28405 3.15123C2.34222 2.04463 0.616463 0.282369 0.0929171 1.61305C-0.391847 2.85245 1.12616 4.45978 2.19541 5.39209L2.26189 5.45019C1.54444 8.36054 4.6774 10.7314 6.36439 11.7689L6.58322 11.9017C4.25635 14.6405 2.81868 19.7723 2.81868 19.7723L9.33668 20.9343C9.33668 20.9343 13.6552 17.2106 13.1012 13.7165L13.1455 13.7165C17.4641 12.8533 18.4447 8.25541 17.7744 5.52488C17.7993 5.52488 17.8242 5.50552 17.8492 5.49168C18.6353 5.1706 19.3245 4.65105 19.8491 3.98394C21.0569 2.29915 18.5251 0.406862 17.2841 2.05293Z" transform="translate(96.25334 184.113)" id="Shape" fill="#4E53F7" stroke="none" />
    <path d="M17.2841 2.05293C17.0183 2.41666 16.8056 2.81626 16.6525 3.23976C16.6137 3.34212 16.5749 3.46107 16.5361 3.5745C16.4662 3.54142 16.3928 3.51636 16.3173 3.49981C15.9945 3.41767 15.6605 3.3887 15.3284 3.41404C15.3284 3.28679 15.345 3.13739 15.3478 3.01014C15.3893 1.55219 15.2176 -0.481184 13.8242 0.379197C12.489 1.20915 13.4419 2.59239 14.3034 3.48044L14.5251 3.69623C13.7383 4.24953 13.5888 5.55808 13.4586 6.91643C13.3284 8.27478 12.1732 9.76316 11.4059 10.6069C11.3284 10.6927 11.2591 10.7702 11.1899 10.8421C10.5633 10.3404 9.75111 10.1319 8.95995 10.2694C8.92948 10.1505 8.89624 10.026 8.85746 9.89318C8.23973 7.64402 6.95164 3.77092 5.30621 2.94097L5.52228 2.66432C6.22034 1.75138 7.00704 0.395796 5.84638 0.0499835C4.68572 -0.295829 4.58045 1.22574 4.64416 2.36554C4.64416 2.50663 4.66632 2.64219 4.6774 2.76945C4.2085 2.79113 3.76941 3.00538 3.46411 3.36148L3.28405 3.15123C2.34222 2.04463 0.616463 0.282369 0.0929171 1.61305C-0.391847 2.85245 1.12616 4.45978 2.19541 5.39209L2.26189 5.45019C1.54444 8.36054 4.6774 10.7314 6.36439 11.7689L6.58322 11.9017C4.25635 14.6405 2.81868 19.7723 2.81868 19.7723L9.33668 20.9343C9.33668 20.9343 13.6552 17.2106 13.1012 13.7165L13.1455 13.7165C17.4641 12.8533 18.4447 8.25541 17.7744 5.52488C17.7993 5.52488 17.8242 5.50552 17.8492 5.49168C18.6353 5.1706 19.3245 4.65105 19.8491 3.98394C21.0569 2.29915 18.5251 0.406862 17.2841 2.05293Z" transform="translate(96.25334 184.113)" id="Shape" fill="#000000" fill-opacity="0.1" stroke="none" />
    <path d="M3.91563 2.8125L3.15386 5.0257C3.15386 5.0257 2.73004 4.72692 2.19541 4.25662C1.12616 3.32431 -0.391847 1.71697 0.0929171 0.47758C0.616463 -0.853105 2.34222 0.90362 3.28405 2.01575C3.66355 2.46946 3.91563 2.8125 3.91563 2.8125Z" transform="translate(96.65224 185.2291)" id="Shape" fill="#4E53F7" stroke="none" />
    <path d="M0.891721 2.66234C0.659912 2.96577 0.412101 3.25666 0.149339 3.53379C0.0844132 3.14624 0.0391109 2.75567 0.0136044 2.36356C-0.0501075 1.22377 0.0717762 -0.289508 1.21582 0.0480042C2.35986 0.385517 1.58978 1.74387 0.891721 2.66234Z" transform="translate(101.2828 184.115)" id="Shape" fill="#4E53F7" stroke="none" />
    <path d="M2.18696 2.82766C2.1648 3.56078 2.09277 4.14451 2.09277 4.14451C1.75775 3.8885 1.44032 3.6103 1.14264 3.31179C0.28114 2.41821 -0.671769 1.0405 0.663411 0.210548C2.05676 -0.663665 2.22851 1.37524 2.18696 2.82766Z" transform="translate(109.813 184.2955)" id="Shape" fill="#4E53F7" stroke="none" />
    <path d="M3.56787 2.55069C3.04322 3.21779 2.35405 3.73734 1.56787 4.05843C1.35006 4.15433 1.12612 4.23566 0.897507 4.30188L0 3.04312C0.0950268 2.62738 0.21906 2.21879 0.371191 1.82033C0.524363 1.39684 0.737015 0.997238 1.00277 0.633504C2.24377 -1.01256 4.77562 0.879723 3.56787 2.55069Z" transform="translate(112.9335 185.5324)" id="Shape" fill="#4E53F7" stroke="none" />
    <path d="M1.08864 0C1.46814 0.439873 1.72022 0.782919 1.72022 0.782919L0.958449 2.99612C0.958449 2.99612 0.534626 2.69734 0 2.22703C0.119346 1.51401 0.414452 0.841849 0.858726 0.271117C0.933518 0.182589 1.01385 0.0857614 1.08864 0Z" transform="translate(98.84765 187.2587)" id="Shape" fill="#000000" fill-opacity="0.1" stroke="none" />
    <path d="M0.878116 0.298782C0.646308 0.602209 0.398497 0.893102 0.135734 1.17023C0.0708087 0.782681 0.0255064 0.392108 0 0C0.316817 0.00527165 0.623975 0.109783 0.878116 0.298782L0.878116 0.298782Z" transform="translate(101.2964 186.4785)" id="Shape" fill="#000000" fill-opacity="0.1" stroke="none" />
    <path d="M7.11353 8.74158L5.21602 9.57153C5.21602 9.57153 4.80328 9.37234 4.20771 9.00439C2.21602 7.77884 -1.78675 4.69972 0.897461 1.07008C3.58167 -2.55957 5.8199 3.95 6.70079 7.13424C6.96948 8.08868 7.11353 8.74158 7.11353 8.74158Z" transform="translate(98.80891 186.8692)" id="Shape" fill="#4E53F7" stroke="none" />
    <path d="M1.57461e-14 0.470305C0.275107 0.185971 0.648814 0.0176745 1.04432 0C1.02216 0.733122 0.950138 1.31685 0.950138 1.31685C0.614667 1.0564 0.297229 0.77357 0 0.470305L1.57461e-14 0.470305Z" transform="translate(110.9557 187.1369)" id="Shape" fill="#000000" fill-opacity="0.1" stroke="none" />
    <path d="M1.56787 2.2381C1.35006 2.334 1.12612 2.41533 0.897507 2.48155L0 1.22279C0.0950268 0.807048 0.21906 0.398454 0.371191 0C0.950138 0.340279 1.37673 1.17853 1.56787 2.2381Z" transform="translate(112.9335 187.3527)" id="Shape" fill="#000000" fill-opacity="0.1" stroke="none" />
    <path d="M3.80947 10.3033L3.49091 10.3586C-2.86089 11.3241 1.39673 7.89922 1.39673 7.89922C1.39673 7.89922 1.67373 7.62257 2.06986 7.20759C2.83717 6.36381 3.98952 4.88374 4.12249 3.51709C4.32193 1.46158 4.55185 -0.466671 6.98121 0.100461C9.36625 0.648228 9.81501 9.09988 3.80947 10.3033Z" transform="translate(105.9883 187.5123)" id="Shape" fill="#4E53F7" stroke="none" />
    <path d="M0 0L12.1357 0L12.1357 3.18701L0 3.18701L0 0Z" transform="translate(97.54571 213.6096)" id="Rectangle-path" fill="#D4DFEC" stroke="none" />
    <path d="M0 0L15.856 0L15.856 11.1213L0 11.1213L0 0Z" transform="translate(95.61773 203.2518)" id="Rectangle-path" fill="#D4DFEC" stroke="none" />
    <path d="M0 0L12.1357 0L12.1357 3.18701L0 3.18701L0 0Z" transform="translate(97.54571 213.6096)" id="Rectangle-path" fill="#000000" fill-opacity="0.1" stroke="none" />
    <path d="M0 0L15.856 0L15.856 11.1213L0 11.1213L0 0Z" transform="translate(95.61773 203.2518)" id="Rectangle-path" fill="#000000" fill-opacity="0.1" stroke="none" />
    <path d="M0 0L12.1357 0L12.1357 3.18701L0 3.18701L0 0Z" transform="translate(98.34349 213.6096)" id="Rectangle-path" fill="#D4DFEC" stroke="none" />
    <path d="M2.49307 0C2.77008 0.951675 2.90582 1.60457 2.90582 1.60457L1.00831 2.43452C1.00831 2.43452 0.595568 2.23533 0 1.86739C0.742382 0.929543 1.57895 0.218553 2.49307 0Z" transform="translate(103.0166 194.0062)" id="Shape" fill="#000000" fill-opacity="0.1" stroke="none" />
    <path d="M3.80947 3.09571L3.49091 3.15104C-2.86089 4.11655 1.39673 0.691624 1.39673 0.691624C1.39673 0.691624 1.67373 0.414975 2.06986 0C3.25545 0.948909 3.74576 2.01678 3.80947 3.09571Z" transform="translate(105.9883 194.7199)" id="Shape" fill="#000000" fill-opacity="0.1" stroke="none" />
    <path d="M0 9.55025C0 9.55025 3.55679 -3.17564 8.54571 0.752788C13.5346 4.68121 6.51801 10.7122 6.51801 10.7122L0 9.55025Z" transform="translate(99.45983 194.3295)" id="Shape" fill="#4E53F7" stroke="none" />
    <path d="M0.398892 0.796751C0.619194 0.796751 0.797784 0.618392 0.797784 0.398376C0.797784 0.178359 0.619194 0 0.398892 0C0.17859 0 0 0.178359 0 0.398376C0 0.618392 0.17859 0.796751 0.398892 0.796751Z" transform="translate(100.8698 189.5383)" id="Oval" fill="#000000" fill-opacity="0.1" stroke="none" />
    <path d="M0.398892 0.796751C0.619194 0.796751 0.797784 0.618392 0.797784 0.398376C0.797784 0.178359 0.619194 0 0.398892 0C0.17859 0 0 0.178359 0 0.398376C0 0.618392 0.17859 0.796751 0.398892 0.796751Z" transform="translate(100.8366 191.3974)" id="Oval" fill="#000000" fill-opacity="0.1" stroke="none" />
    <path d="M0.398892 0.796751C0.619194 0.796751 0.797784 0.618392 0.797784 0.398376C0.797784 0.178359 0.619194 0 0.398892 0C0.17859 0 0 0.178359 0 0.398376C0 0.618392 0.17859 0.796751 0.398892 0.796751Z" transform="translate(112.4044 189.9035)" id="Oval" fill="#000000" fill-opacity="0.1" stroke="none" />
    <path d="M0.398892 0.796751C0.619194 0.796751 0.797784 0.618392 0.797784 0.398376C0.797784 0.178359 0.619194 0 0.398892 0C0.17859 0 0 0.178359 0 0.398376C0 0.618392 0.17859 0.796751 0.398892 0.796751Z" transform="translate(103.097 199.434)" id="Oval" fill="#000000" fill-opacity="0.1" stroke="none" />
    <path d="M0.398892 0.796751C0.619194 0.796751 0.797784 0.618392 0.797784 0.398376C0.797784 0.178359 0.619194 0 0.398892 0C0.17859 0 0 0.178359 0 0.398376C0 0.618392 0.17859 0.796751 0.398892 0.796751Z" transform="translate(111.5734 192.9909)" id="Oval" fill="#000000" fill-opacity="0.1" stroke="none" />
    <path d="M0.398892 0.796751C0.619194 0.796751 0.797784 0.618392 0.797784 0.398376C0.797784 0.178359 0.619194 0 0.398892 0C0.17859 0 0 0.178359 0 0.398376C0 0.618392 0.17859 0.796751 0.398892 0.796751Z" transform="translate(107.4515 197.1102)" id="Oval" fill="#000000" fill-opacity="0.1" stroke="none" />
    <path d="M0.398892 0.796751C0.619194 0.796751 0.797784 0.618392 0.797784 0.398376C0.797784 0.178359 0.619194 0 0.398892 0C0.17859 0 0 0.178359 0 0.398376C0 0.618392 0.17859 0.796751 0.398892 0.796751Z" transform="translate(102.2327 190.335)" id="Oval" fill="#000000" fill-opacity="0.1" stroke="none" />
    <path d="M0.398892 0.796751C0.619194 0.796751 0.797784 0.618392 0.797784 0.398376C0.797784 0.178359 0.619194 0 0.398892 0C0.17859 0 0 0.178359 0 0.398376C0 0.618392 0.17859 0.796751 0.398892 0.796751Z" transform="translate(111.3075 191.0986)" id="Oval" fill="#000000" fill-opacity="0.1" stroke="none" />
    <path d="M0.398892 0.796751C0.619194 0.796751 0.797784 0.618392 0.797784 0.398376C0.797784 0.178359 0.619194 0 0.398892 0C0.17859 0 0 0.178359 0 0.398376C0 0.618392 0.17859 0.796751 0.398892 0.796751Z" transform="translate(109.9446 194.186)" id="Oval" fill="#000000" fill-opacity="0.1" stroke="none" />
    <path d="M0.398892 0.796751C0.619194 0.796751 0.797784 0.618392 0.797784 0.398376C0.797784 0.178359 0.619194 0 0.398892 0C0.17859 0 0 0.178359 0 0.398376C0 0.618392 0.17859 0.796751 0.398892 0.796751Z" transform="translate(105.7562 199.1353)" id="Oval" fill="#000000" fill-opacity="0.1" stroke="none" />
    <path d="M0.398892 0.796751C0.619194 0.796751 0.797784 0.618392 0.797784 0.398376C0.797784 0.178359 0.619194 0 0.398892 0C0.17859 0 0 0.178359 0 0.398376C0 0.618392 0.17859 0.796751 0.398892 0.796751Z" transform="translate(104.892 197.1766)" id="Oval" fill="#000000" fill-opacity="0.1" stroke="none" />
    <path d="M0.398892 0.796751C0.619194 0.796751 0.797784 0.618392 0.797784 0.398376C0.797784 0.178359 0.619194 0 0.398892 0C0.17859 0 0 0.178359 0 0.398376C0 0.618392 0.17859 0.796751 0.398892 0.796751Z" transform="translate(102.831 192.7585)" id="Oval" fill="#000000" fill-opacity="0.1" stroke="none" />
    <path d="M0 0L12.1357 0L12.1357 1.1647L0 1.1647L0 0Z" transform="translate(98.34349 213.6096)" id="Rectangle-path" fill="#000000" fill-opacity="0.1" stroke="none" />
    <path d="M0 0L15.856 0L15.856 11.1213L0 11.1213L0 0Z" transform="translate(96.41551 203.2518)" id="Rectangle-path" fill="#D4DFEC" stroke="none" />
    <path d="M0.398892 0.796751C0.619194 0.796751 0.797784 0.618392 0.797784 0.398376C0.797784 0.178359 0.619194 0 0.398892 0C0.17859 0 0 0.178359 0 0.398376C0 0.618392 0.17859 0.796751 0.398892 0.796751Z" transform="translate(106.2881 200.9279)" id="Oval" fill="#000000" fill-opacity="0.1" stroke="none" />
    <path d="M0.398892 0.796751C0.619194 0.796751 0.797784 0.618392 0.797784 0.398376C0.797784 0.178359 0.619194 0 0.398892 0C0.17859 0 0 0.178359 0 0.398376C0 0.618392 0.17859 0.796751 0.398892 0.796751Z" transform="translate(103.8947 201.4259)" id="Oval" fill="#000000" fill-opacity="0.1" stroke="none" />
  </g>
</svg>